<svg id="MF1-AUD-IMA-06" xmlns="http://www.w3.org/2000/svg" width="465" height="350.014" viewBox="0 0 465 350.014">
  <g id="Grupo_1031" data-name="Grupo 1031" transform="translate(147.578 213.936)" opacity="0.24">
    <path id="Trazado_2159" data-name="Trazado 2159" d="M210.314,404.507a65.891,65.891,0,0,1,2.737-38.42c.169-.448-.549-.642-.718-.194a66.635,66.635,0,0,0-2.762,38.808.372.372,0,0,0,.718-.194Z" transform="translate(-189.988 -290.971)" fill="#ff6239"/>
    <path id="Trazado_2160" data-name="Trazado 2160" d="M213.853,360.808a42.12,42.12,0,0,1,14.015-27.032c2.154-1.875,4.688-3.776,7.6-4.055,2.019-.186,4.224.532,4.68,2.729a6.834,6.834,0,0,1-.938,4.418c-2.534,4.705-7.7,7.958-11.683,11.32q-7.231,6.091-14.361,12.359c-.355.313.169.845.524.524q7.687-6.826,15.594-13.423c4.131-3.472,10.568-7.409,11.548-13.2.955-5.651-5.119-6.353-9.031-4.393-5.069,2.534-9.292,7.6-12.308,12.308a42.989,42.989,0,0,0-6.437,18.441c-.051.473.693.473.743,0Z" transform="translate(-190.789 -285.294)" fill="#ff6239"/>
    <path id="Trazado_2161" data-name="Trazado 2161" d="M209.936,356.646a73.5,73.5,0,0,0-5.449-20.553c-2.838-6.589-7.164-12.367-10.078-18.9-1.478-3.32-3.455-8.22-1.605-11.725,2.577-4.9,7.789-1.259,9.825,2.036a30.9,30.9,0,0,1,3.269,9.132c.946,3.979,1.85,7.975,2.593,12,1.69,9.242,2.34,18.585.71,27.877-.076.473.642.667.718.2a77,77,0,0,0-.338-26.188c-.76-4.486-1.757-8.938-2.8-13.364-.845-3.438-1.622-7-3.514-10.036-1.4-2.256-3.835-4.807-6.7-4.866s-4.756,2.534-5.119,5.128c-.49,3.523,1.014,7.324,2.441,10.467,1.69,3.641,3.827,7.02,5.829,10.475a73.613,73.613,0,0,1,9.47,28.316c.051.473.8.473.743,0Z" transform="translate(-187.421 -281.132)" fill="#ff6239"/>
    <path id="Trazado_2162" data-name="Trazado 2162" d="M206.535,368.608c-9.681-6.386-17.892-17.96-18.99-29.693a26.678,26.678,0,0,1,.676-9.183c.473-1.85,1.411-4.587,3.785-3.176a10.687,10.687,0,0,1,3.506,3.9,38.017,38.017,0,0,1,3.379,8.6c.929,3.05,1.69,6.141,2.433,9.242,1.6,6.9,2.889,13.871,4.688,20.73a.372.372,0,1,0,.718-.194c-1.918-7.316-3.252-14.758-5.009-22.116a111.924,111.924,0,0,0-3.092-10.906,23.89,23.89,0,0,0-4.274-8.253c-1.309-1.5-3.556-3.3-5.347-1.419s-2.011,5.373-2.213,7.763a33.392,33.392,0,0,0,4.553,18.931,48.05,48.05,0,0,0,14.834,16.422c.405.262.777-.38.38-.65Z" transform="translate(-186.698 -284.714)" fill="#ff6239"/>
    <path id="Trazado_2163" data-name="Trazado 2163" d="M225.278,401.1a184.515,184.515,0,0,0,2.188-56.532c-.059-.473-.845-.482-.752,0a183.516,183.516,0,0,1-2.146,56.337c-.093.465.625.667.718.194Z" transform="translate(-192.576 -287.644)" fill="#ff6239"/>
    <path id="Trazado_2164" data-name="Trazado 2164" d="M226.7,350.726a58.288,58.288,0,0,1-14.674-37.854,54.066,54.066,0,0,1,.845-10.441c.27-1.5.65-3.261,1.808-4.351,2.45-2.332,4.4,1.284,5.069,3.252,2.475,7.273,3.134,15.417,3.928,23,.929,8.87,1.5,17.74,2.4,26.652.042.473.794.482.743,0-.929-9.225-1.512-18.483-2.534-27.7-.473-4.384-1.039-8.76-1.8-13.111-.65-3.717-1.056-8.329-3.159-11.565-1.25-1.943-3.616-2.762-5.356-.9-2.019,2.179-2.146,5.913-2.424,8.693a58.88,58.88,0,0,0,14.614,44.84c.321.363.845-.169.524-.524Z" transform="translate(-190.513 -280.264)" fill="#ff6239"/>
    <path id="Trazado_2165" data-name="Trazado 2165" d="M229.281,362.293c3.742-6.26,5.128-13.516,5.575-20.68.532-8.65-.541-17.571.955-26.145.346-2.027,1.149-4.224,3.43-4.655,2.534-.482,4.646,1.369,5.77,3.447,1.808,3.32,2.534,7.6,3.227,11.3a39.881,39.881,0,0,1-2.534,22.412c-1.394,3.379-3.126,7.755-6.065,10.137a18.72,18.72,0,0,1-10.7,3.624c-.473,0-.482.769,0,.743a21.119,21.119,0,0,0,9.453-2.636c2.974-1.69,4.621-4.553,6.133-7.544,3.666-7.24,5.778-15.341,4.925-23.484a57.2,57.2,0,0,0-2.838-12.671c-1.005-2.906-2.99-5.956-6.386-6.125s-4.79,2.957-5.221,5.854a102.479,102.479,0,0,0-.667,14.758c0,10.661-.051,21.871-5.694,31.324a.372.372,0,0,0,.642.372Z" transform="translate(-193.199 -282.336)" fill="#ff6239"/>
    <path id="Trazado_2166" data-name="Trazado 2166" d="M228.716,343.344c6.26-17.689-.65-36.156,0-54.225.118-3.328.321-14.234,6.395-10.357,3.768,2.416,5.44,8.067,6.353,12.165a75.277,75.277,0,0,1,.566,27.438c-.735,4.773-1.6,10.255-3.894,14.564s-6.15,7.265-9.96,9.994c-.38.279,0,.929.38.65,3.328-2.391,6.648-4.967,9.031-8.346,2.7-3.827,3.666-8.76,4.562-13.28a79.222,79.222,0,0,0,.405-29.356c-.786-4.325-2.12-8.828-4.866-12.35-1.816-2.34-5.449-4.545-7.755-1.512a9.588,9.588,0,0,0-1.453,4.52,59.642,59.642,0,0,0-.549,8.042,139.541,139.541,0,0,0,1.25,16.684c1.369,11.7,2.847,23.814-1.174,35.176-.161.448.558.65.718.194Z" transform="translate(-193.099 -277.25)" fill="#ff6239"/>
  </g>
  <g id="Grupo_1032" data-name="Grupo 1032" transform="translate(18.624 194.688)" opacity="0.24">
    <path id="Trazado_2167" data-name="Trazado 2167" d="M80.219,389.276c1.782-17.74-9.36-33.393-15.552-49.174a189.371,189.371,0,0,1-12.731-56.827c-.541-8.3-.439-18.2,5.5-24.735,3.379-3.725,8.448-4.536,11.953-.49,3.126,3.6,3.033,8.667,2.931,13.161-.448,19.548-1.047,39.129,4,58.2,2.8,10.593,5.913,20.975,7.451,31.856,1.335,9.368,1.69,19.835-4.224,27.818-.287.38.355.752.642.372,5.018-6.758,5.618-15.459,4.891-23.594-.845-10.027-3.295-19.86-6.032-29.516a150.142,150.142,0,0,1-5.863-31.2c-.718-10.7-.414-21.2-.152-31.805.11-4.325.515-9.039-1.335-13.094-1.326-2.889-4-5.483-7.3-5.761-8.144-.676-12.055,10.23-12.95,16.54-1.284,9.022.076,18.585,1.4,27.514a191.66,191.66,0,0,0,6.919,29.9c3.261,10.255,7.687,19.86,12.181,29.609s8.6,20.19,7.518,31.214C79.425,389.75,80.169,389.75,80.219,389.276Z" transform="translate(-36.669 -254.465)" fill="#ff6239"/>
    <path id="Trazado_2168" data-name="Trazado 2168" d="M82.535,391.109c2.171-6.935,1.825-14.361.65-21.432a134.317,134.317,0,0,0-6.074-22.606c-2.762-7.839-5.913-15.527-8.3-23.5a125.38,125.38,0,0,1-3.827-53.347c.068-.473-.65-.676-.718-.2a126.824,126.824,0,0,0,2.289,48.092c3.869,15.78,11.269,30.411,14.843,46.352,1.935,8.608,3.1,17.875.414,26.45C81.673,391.371,82.391,391.565,82.535,391.109Z" transform="translate(-38.536 -256.838)" fill="#ff6239"/>
    <path id="Trazado_2169" data-name="Trazado 2169" d="M85.953,389.178c9.064-15.924,11.185-33.96,9.216-51.97A229.865,229.865,0,0,0,90.1,310.057c-2.239-9.546-3.734-18.94-1.14-28.578,2.112-7.831,7.6-18.433,17.427-16.777,4.156.7,6.809,4.1,7.721,8.034s.152,8.076-1.09,11.962c-1.326,4.139-3.083,8.152-3.768,12.477a53.884,53.884,0,0,0,0,13.145,209.091,209.091,0,0,1,.22,29.009c-.541,10.179-1.69,20.5-5.913,29.9-3.649,8.177-9.571,15.9-18.053,19.43-.439.186-.245.9.2.718,15.713-6.488,21.964-24.828,23.7-40.371a197.157,197.157,0,0,0,1.132-30.775c-.228-4.993-.963-9.96-.988-14.961a42.137,42.137,0,0,1,2.855-14.564c2.34-6.623,4.984-15.02,0-21.212-4.781-5.973-13.466-3.785-18.01,1.25-5.719,6.336-7.814,16.135-7.73,24.431.11,9.825,3.379,19.43,5.288,28.984,2.256,11.345,3.725,22.961,2.914,34.542a75.234,75.234,0,0,1-9.613,32.1.373.373,0,1,0,.642.38Z" transform="translate(-41.989 -255.929)" fill="#ff6239"/>
    <path id="Trazado_2170" data-name="Trazado 2170" d="M86.491,391.783c8.287-10.34,14.564-23.468,15.958-36.739.845-8.177,0-16.574-.3-24.768-.338-8.38-.718-16.769-1.005-25.149-.279-7.932-.152-16.5,4.849-23.1.3-.38-.355-.752-.642-.372-3.945,5.2-4.925,11.734-5.069,18.1-.127,7.941.49,15.932.845,23.865.338,8.363.921,16.769.845,25.14a60.663,60.663,0,0,1-4.013,21.2,77.928,77.928,0,0,1-11.97,21.288c-.3.372.228.9.524.532Z" transform="translate(-42.095 -258.66)" fill="#ff6239"/>
    <path id="Trazado_2171" data-name="Trazado 2171" d="M73.441,399.113c-.532-5.727-3.675-10.695-7.088-15.206-3.683-4.832-7.839-9.208-11.911-13.7A84.476,84.476,0,0,1,42.86,353.783c-3.143-5.736-6.581-11.539-7.6-18.086a52.967,52.967,0,0,1-.456-10.475c.118-3.379.068-7.3,1.884-10.314s5.694-4.6,8.667-2.07c2.737,2.323,3.117,6.057,3.379,9.4.921,12.562,5.7,24,11.387,35.1,6.479,12.671,15.6,26.72,12.671,41.63-.093.465.625.667.718.194,2.644-13.28-4.224-26.078-10.23-37.431C56.613,349.1,50.607,336.339,49.483,321.91c-.338-4.477-1.935-11.582-7.882-11.134s-7.121,7.383-7.383,12.046c-.4,6.826-.3,13.8,2.391,20.207a114.746,114.746,0,0,0,9.825,18.112c4.224,6.462,9.791,11.742,14.817,17.554S71.962,391.215,72.7,399.113C72.748,399.586,73.491,399.586,73.441,399.113Z" transform="translate(-34.046 -263.203)" fill="#ff6239"/>
    <path id="Trazado_2172" data-name="Trazado 2172" d="M74.911,400.284A74.584,74.584,0,0,0,64.369,370.1c-5.854-9.444-14.158-17.377-17.833-28.08a43.413,43.413,0,0,1-1.918-19.886c.068-.465-.65-.667-.718-.194A45.051,45.051,0,0,0,51.038,352.7c2.965,4.579,6.454,8.786,9.63,13.221a76.248,76.248,0,0,1,8.507,15.206,73.6,73.6,0,0,1,4.993,19.142c.059.473.845.473.743,0Z" transform="translate(-35.517 -264.897)" fill="#ff6239"/>
  </g>
  <g id="Grupo_1033" data-name="Grupo 1033" transform="translate(375.483 229.656)" opacity="0.24">
    <path id="Trazado_2173" data-name="Trazado 2173" d="M503.687,412.33a85.743,85.743,0,0,1,3.3-53.93c.152-.38-.456-.541-.608-.169a86.309,86.309,0,0,0-3.3,54.268.316.316,0,0,0,.608-.169Z" transform="translate(-463.268 -305.508)" fill="#ff6239"/>
    <path id="Trazado_2174" data-name="Trazado 2174" d="M502.621,359.631a44.014,44.014,0,0,1-4.79-13.2,8.094,8.094,0,0,1-.279-2.036c.161-1.309.912-1.588,1.875-1.842a14.306,14.306,0,0,0,2.374-.574c.769-.363,1.689-1.107,1.512-2.087-.22-1.166-1.85-2.07-2.737-2.636-2-1.276-3.421-2.72-3.3-5.28.1-2.306,1.411-4.317,2.712-6.141a3.421,3.421,0,0,1,1.884-1.689,4.29,4.29,0,0,1,2.332-.11l4.038.532a.321.321,0,0,0,.3-.236c.971-2.948-3.2-4.334-4.308-6.5-.76-1.487.532-2.61,1.512-3.6l3.531-3.565c2.011-2.036,4-4.089,6.1-6.023,3.987-3.683,9.073-7.713,14.724-8.084,8.135-.549,5.575,9.064,4.131,13.711-1.005,3.252-2.255,6.429-3.565,9.571-.414,1-.845,1.985-1.259,2.974s-.659,2.23-1.875,2.408a10.634,10.634,0,0,1-2.644-.38l-2.923-.431c-.152,0-.363,0-.389.22-.211,1.537.845,2.627,1.816,3.658.642.659,1.639,1.461,1.749,2.433.144,1.233-2.239,2.577-3.007,3.523-1.639,2.027-2.391,4.545-3.683,6.758-1.808,3.126-4.959.845-7.6,2.264a.321.321,0,0,0,0,.549c1.605.735,3.717,2.2,4.224,4.013.414,1.419-2.931,3.421-3.945,4.224-3.058,2.441-6.234,4.739-9.064,7.442-.3.287.152.735.448.448,4.224-4.03,9.191-7.18,13.423-11.193a.3.3,0,0,0,.084-.313,9.334,9.334,0,0,0-4.874-5.178v.549c2.281-1.233,5.2.693,7.138-1.512s2.475-5.651,4.536-7.983c1.14-1.276,3.6-2.2,2.729-4.308-.76-1.842-3.725-3.007-3.421-5.229l-.389.22,4.1.608a4.549,4.549,0,0,0,2.534.076c.718-.372,1.064-1.537,1.394-2.289q.836-1.977,1.69-3.962c2.078-5.069,4.427-10.5,4.976-15.974.389-3.911-1.335-7.493-5.677-7.6-4.553-.076-9.064,2.7-12.511,5.4-4.317,3.379-8.051,7.485-11.9,11.362-1.14,1.149-3.244,2.577-3.05,4.443.135,1.292,1.259,2.264,2.163,3.075.541.49,1.107.946,1.605,1.478a4.383,4.383,0,0,1,.76,1.039,1.689,1.689,0,0,1,.169.583c0,.684,0,.422-.431.558a6.759,6.759,0,0,1-2.171-.279c-.726-.1-1.453-.211-2.179-.287a2.982,2.982,0,0,0-2.678.7,14.724,14.724,0,0,0-3.624,6.057,5.829,5.829,0,0,0,2.593,7.282c.465.313.946.583,1.4.9a7.074,7.074,0,0,1,.887.684c.617.591.769.7.389,1.554-.676,1.521-2.391,1.107-3.742,1.69a2.433,2.433,0,0,0-1.343,1.183c-.5,1.047-.076,2.458.127,3.523a43.946,43.946,0,0,0,1.174,4.672,45.326,45.326,0,0,0,3.624,8.4c.194.355.743,0,.549-.321Z" transform="translate(-462.692 -295.858)" fill="#ff6239"/>
    <path id="Trazado_2175" data-name="Trazado 2175" d="M485.416,408.886a63.72,63.72,0,0,0-2.45-40.067c-.118-.279.338-.4.448-.118a64.066,64.066,0,0,1,2.458,40.312.237.237,0,0,1-.456-.127Z" transform="translate(-460.592 -307.141)" fill="#ff6239"/>
    <path id="Trazado_2176" data-name="Trazado 2176" d="M481.68,369.762a32.618,32.618,0,0,0,3.548-9.8,5.909,5.909,0,0,0,.211-1.512c-.118-.971-.676-1.183-1.385-1.369a10.363,10.363,0,0,1-1.766-.431c-.574-.262-1.267-.845-1.132-1.546.169-.845,1.377-1.537,2.036-1.96,1.487-.946,2.534-2.019,2.458-3.92a8.916,8.916,0,0,0-2.019-4.57,2.6,2.6,0,0,0-1.394-1.225,3.1,3.1,0,0,0-1.732-.076l-3.007.389a.247.247,0,0,1-.22-.169c-.726-2.2,2.374-3.227,3.193-4.832.574-1.107-.389-1.943-1.115-2.678l-2.627-2.644c-1.5-1.512-2.974-3.033-4.536-4.477-2.957-2.737-6.758-5.728-10.931-6.006-6.048-.406-4.139,6.758-3.075,10.188.752,2.416,1.69,4.773,2.653,7.113q.456,1.107.938,2.2c.287.684.482,1.689,1.385,1.791a7.958,7.958,0,0,0,1.968-.279l2.171-.321c.11,0,.27,0,.287.16.161,1.149-.6,1.951-1.352,2.72-.473.49-1.208,1.081-1.292,1.808-.11.912,1.689,1.909,2.23,2.619,1.216,1.5,1.782,3.379,2.737,5.026,1.343,2.323,3.683.642,5.618,1.69a.237.237,0,0,1,0,.414c-1.191.541-2.754,1.639-3.151,2.982-.3,1.056,2.179,2.534,2.931,3.142,2.272,1.808,4.629,3.523,6.758,5.533.22.2-.11.541-.329.33-3.143-3-6.826-5.331-9.977-8.321a.211.211,0,0,1-.059-.228,6.97,6.97,0,0,1,3.616-3.852v.414c-1.69-.921-3.861.515-5.3-1.124s-1.842-4.224-3.379-5.913c-.845-.955-2.678-1.639-2.027-3.2.566-1.369,2.762-2.23,2.534-3.886l.287.169-3.041.448a3.548,3.548,0,0,1-1.9.059c-.591-.3-.794-1.14-1.031-1.69q-.634-1.47-1.242-2.94c-1.554-3.742-3.295-7.806-3.7-11.827-.287-2.914.988-5.575,4.224-5.626,3.379-.059,6.758,2.01,9.292,4.013A98.064,98.064,0,0,1,478.875,335c.845.845,2.408,1.918,2.264,3.3a3.928,3.928,0,0,1-1.605,2.289,13.314,13.314,0,0,0-1.191,1.09,3.224,3.224,0,0,0-.566.777,1.056,1.056,0,0,0-.118.431c0,.507,0,.321.313.414a4.908,4.908,0,0,0,1.614-.211c.541-.068,1.081-.152,1.622-.211a2.247,2.247,0,0,1,1.994.524,11.041,11.041,0,0,1,2.686,4.5,4.857,4.857,0,0,1-.372,3.953,5.01,5.01,0,0,1-1.554,1.453c-.346.228-.7.431-1.039.667a5.544,5.544,0,0,0-.667.507c-.456.439-.566.524-.279,1.157.5,1.132,1.774.845,2.779,1.25a1.8,1.8,0,0,1,1,.845,4.471,4.471,0,0,1-.093,2.619,32.625,32.625,0,0,1-.845,3.472,33.376,33.376,0,0,1-2.686,6.234.237.237,0,0,1-.405-.237Z" transform="translate(-456.483 -300)" fill="#ff6239"/>
  </g>
  <ellipse id="Elipse_518" data-name="Elipse 518" cx="222.435" cy="11.734" rx="222.435" ry="11.734" transform="translate(0 326.543)" fill="#7bb9f5" opacity="0.24"/>
  <path id="Trazado_2177" data-name="Trazado 2177" d="M321.081,95.876l-.971-.726,27.7-37.043,24.456,24.405,31.02-46.665,25.96,32.692L462.63,34.31h52.063v1.208H463.145l-34,34.846L403.378,37.9,372.46,84.413,347.936,59.949Z" transform="translate(-49.693 -5.326)" fill="#7bb9f5"/>
  <rect id="Rectángulo_749" data-name="Rectángulo 749" width="124.856" height="72.05" transform="translate(123.428 17.96)" fill="none" stroke="#7bb9f5" stroke-miterlimit="10" stroke-width="1" opacity="0.24"/>
  <rect id="Rectángulo_750" data-name="Rectángulo 750" width="7.839" height="64.101" transform="translate(125.768 25.909)" fill="#7bb9f5" opacity="0.24"/>
  <rect id="Rectángulo_751" data-name="Rectángulo 751" width="7.839" height="52.958" transform="translate(138.195 37.051)" fill="#7bb9f5" opacity="0.24"/>
  <rect id="Rectángulo_752" data-name="Rectángulo 752" width="7.839" height="36.021" transform="translate(150.621 53.98)" fill="#7bb9f5" opacity="0.24"/>
  <rect id="Rectángulo_753" data-name="Rectángulo 753" width="7.839" height="47.011" transform="translate(163.056 42.99)" fill="#7bb9f5" opacity="0.24"/>
  <rect id="Rectángulo_754" data-name="Rectángulo 754" width="7.839" height="24.312" transform="translate(175.483 65.689)" fill="#7bb9f5" opacity="0.24"/>
  <rect id="Rectángulo_755" data-name="Rectángulo 755" width="7.839" height="12.156" transform="translate(187.909 77.845)" fill="#7bb9f5" opacity="0.24"/>
  <rect id="Rectángulo_756" data-name="Rectángulo 756" width="7.839" height="36.021" transform="translate(200.336 53.98)" fill="#7bb9f5" opacity="0.24"/>
  <rect id="Rectángulo_757" data-name="Rectángulo 757" width="7.839" height="53.676" transform="translate(212.762 36.333)" fill="#7bb9f5" opacity="0.24"/>
  <rect id="Rectángulo_758" data-name="Rectángulo 758" width="7.839" height="64.101" transform="translate(225.197 25.909)" fill="#7bb9f5" opacity="0.24"/>
  <rect id="Rectángulo_759" data-name="Rectángulo 759" width="7.839" height="43.227" transform="translate(237.623 46.775)" fill="#7bb9f5" opacity="0.24"/>
  <path id="Trazado_2178" data-name="Trazado 2178" d="M375.225,37.176l-2.315-2.256-2.23,1.132a14.427,14.427,0,0,0-1.892-1.064l-.194-2.534-3.126-.794-1.36,2.1h0a9.538,9.538,0,0,0-1.1,0,6.787,6.787,0,0,0-1.1.059h0l-1.419-2.053-3.1.845-.135,2.534a12.675,12.675,0,0,0-1.867,1.1l-2.256-1.073-2.256,2.315,1.132,2.222a15.077,15.077,0,0,0-1.064,1.9l-2.484.194-.8,3.126,2.112,1.385V47.4a6.838,6.838,0,0,0,.059,1.1h0l-2.061,1.411.845,3.109,2.492.135a14.464,14.464,0,0,0,1.107,1.867l-1.073,2.256,2.315,2.247,2.222-1.124a14.1,14.1,0,0,0,1.9,1.064l.194,2.484,3.126.845,1.36-2.1h1.09a6.839,6.839,0,0,0,1.1-.059l1.4,2.061,3.109-.845.135-2.534a14.52,14.52,0,0,0,1.867-1.183l2.256,1.073L375.47,56.9l-1.132-2.23a13.463,13.463,0,0,0,1.056-1.892l2.492-.194.8-3.126-2.1-1.369h0a9.666,9.666,0,0,0,0-1.107c-.042-.372,0-.726-.051-1.081l2.053-1.419-.845-3.1-2.534-.135a12.753,12.753,0,0,0-1.081-1.816Zm-4.9,17a9.977,9.977,0,1,1-.177-14.108A9.977,9.977,0,0,1,370.325,54.173Z" transform="translate(-64.107 -25.189)" fill="#7bb9f5"/>
  <path id="Trazado_2179" data-name="Trazado 2179" d="M375.262,37.124l-2.306-2.247a.084.084,0,0,0-.084,0l-1.352.684a3.185,3.185,0,0,1-.752.389c-.287,0-.7-.355-.988-.507s-.845-.313-.938-.574a2.811,2.811,0,0,1-.068-.845c-.042-.507-.085-1.005-.118-1.512a.093.093,0,0,0-.051-.059l-3.126-.794a.084.084,0,0,0-.076,0c-.456.7-.9,1.4-1.36,2.1a.059.059,0,0,0,0,.093,2.813,2.813,0,0,0-2.129,0,.068.068,0,0,0,.042-.1l-1.419-2.053a.068.068,0,0,0-.076,0l-3.1.845a.068.068,0,0,0-.051.068l-.085,1.512a2.794,2.794,0,0,1,0,.845c-.118.262-.642.431-.921.591s-.693.558-.98.532a2.966,2.966,0,0,1-.76-.355l-1.368-.65a.068.068,0,0,0-.085,0l-2.247,2.306a.067.067,0,0,0,0,.084l.684,1.352a2.863,2.863,0,0,1,.38.752c0,.287-.355.7-.507.988s-.313.845-.574.946a3.117,3.117,0,0,1-.845.059l-1.512.118a.076.076,0,0,0-.059.051c-.27,1.039-.532,2.087-.794,3.126a.068.068,0,0,0,0,.076c.532.338,1.056.684,1.58,1.031.372.237.4.22.465.634.093.566-.2,1.284.169,1.782,0,0-.059-.051-.093,0L347.7,49.8a.067.067,0,0,0,0,.076c.287,1.031.583,2.061.845,3.1a.084.084,0,0,0,.068.051l1.512.076a3.143,3.143,0,0,1,.845.051c.262.118.431.642.591.921s.558.693.541.98a3.3,3.3,0,0,1-.363.76c-.22.456-.439.912-.65,1.369a.068.068,0,0,0,0,.084l2.306,2.247a.068.068,0,0,0,.084,0l1.352-.684a2.864,2.864,0,0,1,.752-.38c.287,0,.7.355.988.507s.845.313.938.574a3.1,3.1,0,0,1,.068.845c0,.5.076,1.005.118,1.5a.076.076,0,0,0,.051.068l3.126.794a.068.068,0,0,0,.076,0l.845-1.276a3.033,3.033,0,0,1,.456-.7c.236-.169.786-.059,1.107-.059s.845-.135,1.124,0,.346.515.473.7l.845,1.25a.076.076,0,0,0,.076,0l3.1-.845a.068.068,0,0,0,.051-.068c0-.507.051-1.005.084-1.512a2.83,2.83,0,0,1,.042-.845c.118-.262.642-.431.921-.6s.693-.558.98-.532a3.133,3.133,0,0,1,.76.363l1.368.65a.051.051,0,0,0,.076,0l2.255-2.306a.068.068,0,0,0,0-.084l-.684-1.352a3.15,3.15,0,0,1-.38-.752c0-.287.346-.7.507-.988s.313-.845.574-.938a2.788,2.788,0,0,1,.845-.068l1.5-.118a.084.084,0,0,0,.068-.051c.262-1.048.532-2.087.794-3.126a.068.068,0,0,0,0-.076l-2.07-1.343a.059.059,0,0,0-.093,0,3.667,3.667,0,0,0,.135-1.605c0-.583,0-.515.439-.845l1.5-1.005a.067.067,0,0,0,0-.076c-.3-1.031-.583-2.07-.845-3.1a.068.068,0,0,0-.068-.051l-1.521-.084a3.134,3.134,0,0,1-.845,0c-.262-.118-.422-.65-.591-.929s-.558-.684-.532-.971a2.99,2.99,0,0,1,.363-.76l.659-1.369c0-.076-.084-.144-.118-.068a9.226,9.226,0,0,0-.988,2.061c-.11.71.676,1.453,1.014,2.129a.084.084,0,0,0,.059,0,7.556,7.556,0,0,1,2.441.118c.3.253.22.786.287,1.014a11.326,11.326,0,0,1,.473,1.69c.051.465.152.2-.186.541a11.168,11.168,0,0,1-1.326.912c-.845.583-.363,1.546-.422,2.534,0,.068.1.093.127,0-.085.2,1.884,1.149,1.935,1.47a5.846,5.846,0,0,1-.422,1.647,6.876,6.876,0,0,1-.3,1.259c-.549.431-1.867-.152-2.492.2a10.077,10.077,0,0,0-1.09,1.926,1.75,1.75,0,0,0,.287.608c.186.38.786,1.149.786,1.563,0,.2-.439.566-.684.845a7.406,7.406,0,0,1-1.267,1.3c-.4.22-.346.127-.921-.144-.338-.161-1.064-.693-1.445-.693s-.845.507-1.208.693-.65.262-.794.507a5.069,5.069,0,0,0-.093,1.69c0,.684.093.6-.482.845a18.021,18.021,0,0,1-2.027.566c-.667.186-.532.169-.921-.405s-.667-.971-1-1.461a.085.085,0,0,0-.059,0c-.507.042-1.816-.186-2.222.042-.245.144-.482.735-.634.963s-.591,1.073-.743,1.107a5.609,5.609,0,0,1-1.757-.448,6.76,6.76,0,0,1-1.25-.3c-.22-.279-.11-1.377-.144-1.732a2.128,2.128,0,0,0-.076-.769,7.392,7.392,0,0,0-1.951-1.081c-.71,0-1.69,1.191-2.247,1.073a10.382,10.382,0,0,1-2.2-2.129c-.1-.7,1.1-1.554,1.064-2.281a7.926,7.926,0,0,0-1.14-2c-.245-.169-.988-.059-1.276-.076-.524,0-1.022.059-1.242-.253a7.6,7.6,0,0,1-.583-2.07c-.2-.71-.338-.667.245-1.073a8.737,8.737,0,0,0,1.47-1.081c0,.051.135,0,.127,0a8.879,8.879,0,0,0,0-2.222c-.085-.152-.507-.338-.634-.422-.287-.177-1.343-.634-1.453-.946a5.679,5.679,0,0,1,.27-.988,6.938,6.938,0,0,1,.465-1.842c.186-.287.228-.2.726-.245a5.474,5.474,0,0,0,1.69-.127c.287-.16.355-.49.532-.845s.684-.845.676-1.191-.515-1.014-.684-1.352-.414-.71-.38-.845c.076-.363.98-1.005,1.233-1.267s.676-.845.921-.946a7.7,7.7,0,0,1,1.309.642,3.277,3.277,0,0,0,.9.431c.422,0,1.5-.9,1.918-1.115a.059.059,0,0,0,0-.059,8.238,8.238,0,0,1,.118-2.2c.186-.465.9-.49,1.521-.667s1.267-.541,1.639-.22,1.039,1.816,1.276,1.69c-.059,0-.059.144,0,.135a14.666,14.666,0,0,1,2.2,0c.068,0,.093-.1,0-.127.177.093.98-1.546,1.217-1.757s1.039,0,1.647.177,1.369.161,1.529.625c.237.642-.135,1.613.177,2.2a7.6,7.6,0,0,0,1.977,1.124c.5,0,1.259-.642,1.69-.845.693-.355.659-.093,1.259.49l1.512,1.478C375.228,37.284,375.329,37.183,375.262,37.124Z" transform="translate(-64.102 -25.187)" fill="#7bb9f5"/>
  <path id="Trazado_2180" data-name="Trazado 2180" d="M371.283,55.133a9.909,9.909,0,1,1,1.064-12.553,10.044,10.044,0,0,1-1.064,12.553.076.076,0,0,0,.1.1,10.044,10.044,0,1,0-12.672,1.394,10.188,10.188,0,0,0,12.671-1.394C371.443,55.167,371.342,55.074,371.283,55.133Z" transform="translate(-65.115 -26.2)" fill="#7bb9f5"/>
  <g id="Grupo_1034" data-name="Grupo 1034" transform="translate(376.384)" opacity="0.43">
    <path id="Trazado_2181" data-name="Trazado 2181" d="M475.231,27.564l-1.487-1.445-1.428.718a8.565,8.565,0,0,0-1.216-.676l-.127-1.605-2-.507-.845,1.343h0a4.908,4.908,0,0,0-.7,0h-.71l-.929-1.3-1.994.558-.084,1.605a9.127,9.127,0,0,0-1.2.71l-1.445-.693-1.445,1.487.718,1.428a9.061,9.061,0,0,0-.676,1.216l-1.605.127-.507,2,1.343.845a8.327,8.327,0,0,0,0,1.4h0l-1.318.912.558,1.994,1.6.084a8.657,8.657,0,0,0,.718,1.2l-.693,1.453,1.487,1.445,1.428-.726a9.116,9.116,0,0,0,1.216.684l.127,1.6,2,.507.845-1.343a6.428,6.428,0,0,0,.7,0h.7l.9,1.326,1.994-.566.085-1.6a8.335,8.335,0,0,0,1.2-.718l1.537.718,1.453-1.478-.727-1.436a7.8,7.8,0,0,0,.676-1.216l1.605-.127.507-2-1.343-.845h0a6.647,6.647,0,0,0,0-.71v-.693l1.326-.912-.566-1.994-1.605-.084a7.608,7.608,0,0,0-.71-1.2Zm-3.143,10.914a6.4,6.4,0,1,1-.11-9.064A6.4,6.4,0,0,1,472.088,38.479Z" transform="translate(-457.55 -24.008)" fill="#7bb9f5"/>
    <path id="Trazado_2182" data-name="Trazado 2182" d="M475.272,27.523l-1.487-1.445h-.051l-.845.439a1.85,1.85,0,0,1-.482.245c-.186,0-.456-.22-.634-.321s-.524-.2-.608-.372a2.263,2.263,0,0,1-.042-.541l-.076-.971-2-.507L468.92,24l-.845,1.343v.051a1.825,1.825,0,0,0-1.368,0,.051.051,0,0,0,0-.068l-.9-1.318h-.051l-1.994.558a.06.06,0,0,0,0,.042l-.051.971a2.282,2.282,0,0,1,0,.541c-.076.169-.422.279-.6.38s-.439.363-.625.346a2.011,2.011,0,0,1-.49-.237l-.845-.414H461.1l-1.47,1.521v.051l.439.845a1.847,1.847,0,0,1,.245.482c0,.186-.22.456-.321.634s-.2.532-.372.608a1.9,1.9,0,0,1-.541,0l-.971.076-.507,2v.051l1.014.659c.236.152.253.144.3.414s-.135.845.1,1.14h-.059l-1.318.912.558,1.994a.059.059,0,0,0,.042,0l.971.051a1.926,1.926,0,0,1,.541,0c.169.076.279.414.38.591s.363.439.346.625a1.873,1.873,0,0,1-.237.49c-.135.3-.279.583-.414.845v.051l1.478,1.445h.051l.845-.439a1.85,1.85,0,0,1,.482-.245c.186,0,.456.228.634.329s.524.194.608.363a2.292,2.292,0,0,1,.042.541l.076.971a.042.042,0,0,0,0,.042l2,.507h.051l.532-.845c.076-.11.177-.372.3-.448s.507,0,.71,0,.566-.084.718,0a1.993,1.993,0,0,1,.3.448c.177.27.363.541.549.845a.042.042,0,0,0,.042,0l1.994-.566v-.042l.051-.963a1.9,1.9,0,0,1,0-.541c.068-.177.414-.279.591-.389s.439-.363.625-.346a2.18,2.18,0,0,1,.49.237l.845.414h.144l1.444-1.487v-.051l-.439-.845a1.845,1.845,0,0,1-.245-.482c0-.186.22-.456.321-.634s.2-.524.372-.608a2.264,2.264,0,0,1,.541-.042l.971-.076a.042.042,0,0,0,.042,0l.507-2v-.051l-1.343-.845H476.1a2.485,2.485,0,0,0,.085-1.031c0-.372,0-.329.279-.532l1-.684v-.051l-.558-1.994a.059.059,0,0,0-.042,0l-.971-.051a1.9,1.9,0,0,1-.541,0c-.169-.068-.279-.414-.38-.591s-.363-.439-.346-.625a2.371,2.371,0,0,1,.236-.49l.422-.845c0-.051-.059-.093-.076-.042a5.964,5.964,0,0,0-.634,1.326c-.076.456.431.929.65,1.369h0a4.942,4.942,0,0,1,1.571.076c.194.161.144.507.186.65a7.749,7.749,0,0,1,.3,1.073c0,.3.1.127-.118.346a7.475,7.475,0,0,1-.845.583c-.532.38-.237,1-.27,1.622,0,.042.059.059.076,0-.059.127,1.216.735,1.242.938a3.531,3.531,0,0,1-.27,1.064,4.3,4.3,0,0,1-.194.845c-.355.279-1.2-.093-1.6.135a5.589,5.589,0,0,0-.7,1.233,1.157,1.157,0,0,0,.237.448c.127.245.507.735.515,1.005,0,.135-.287.363-.448.524a4.763,4.763,0,0,1-.845.845c-.253.135-.22.076-.591-.093a3.244,3.244,0,0,0-.929-.448c-.228,0-.566.321-.769.448s-.422.169-.515.321a3.228,3.228,0,0,0-.059,1.107c0,.439.059.38-.313.515s-.845.245-1.3.363-.338.11-.591-.262l-.625-.946h0a5.379,5.379,0,0,0-1.428,0c-.262.127-.313.473-.406.617a3.683,3.683,0,0,1-.473.71,3.725,3.725,0,0,1-1.132-.287,4.14,4.14,0,0,1-.845-.194c-.144-.177-.068-.845-.093-1.107a1.968,1.968,0,0,0-.051-.5,4.665,4.665,0,0,0-1.25-.693c-.456,0-1.073.769-1.445.684a6.759,6.759,0,0,1-1.411-1.36c-.068-.456.7-1,.676-1.47a4.585,4.585,0,0,0-.735-1.216c-.152-.11-.634-.042-.845-.051-.346,0-.659.042-.8-.161a4.984,4.984,0,0,1-.372-1.326c-.135-.456-.22-.431.16-.693a5.627,5.627,0,0,0,.938-.693.042.042,0,1,0,.084,0,5.762,5.762,0,0,0,0-1.428c-.051-.093-.321-.211-.405-.27s-.845-.405-.929-.6a3.833,3.833,0,0,1,.169-.642,4.5,4.5,0,0,1,.3-1.183c.118-.177.144-.127.465-.152a3.464,3.464,0,0,0,1.073-.084c.186-.1.228-.313.338-.524s.448-.574.439-.769a3.374,3.374,0,0,0-.439-.845,1.772,1.772,0,0,1-.245-.566c.051-.228.625-.642.794-.845s.431-.566.591-.608a5.845,5.845,0,0,1,.845.414,2.163,2.163,0,0,0,.583.279c.27,0,.963-.583,1.233-.718a5.632,5.632,0,0,1,.1-1.461c.118-.3.574-.313.98-.422s.845-.346,1.056-.144.659,1.166.845,1.107v.084a8.743,8.743,0,0,1,1.411,0s.059-.068,0-.084c.11.059.625-.988.777-1.132s.667,0,1.056.118.845.1.988.405-.093,1.031.11,1.411a4.815,4.815,0,0,0,1.267.718c.321,0,.845-.405,1.1-.549.448-.228.422-.059.845.313l.971.946a.047.047,0,1,0,.017-.093Z" transform="translate(-457.558 -24)" fill="#7bb9f5"/>
    <path id="Trazado_2183" data-name="Trazado 2183" d="M472.7,39.09a6.361,6.361,0,1,1,.684-8.059,6.446,6.446,0,0,1-.684,8.059s0,.1.059.059a6.446,6.446,0,1,0-8.143.9,6.53,6.53,0,0,0,8.143-.9Z" transform="translate(-458.194 -24.653)" fill="#7bb9f5"/>
  </g>
  <g id="Grupo_1035" data-name="Grupo 1035" transform="translate(422.736 79.478)" opacity="0.23">
    <path id="Trazado_2184" data-name="Trazado 2184" d="M532.065,122.044l-1.639-1.605-1.588.845a9.549,9.549,0,0,0-1.343-.752l-.144-1.766-2.213-.566-.971,1.487H522.6l-1.005-1.461-2.2.617-.093,1.774a9.957,9.957,0,0,0-1.309.794l-1.605-.76-1.6,1.605.794,1.588a9.549,9.549,0,0,0-.752,1.343l-1.766.144-.566,2.213,1.487.971v1.554h0l-1.461,1.005.617,2.2,1.774.093a9.592,9.592,0,0,0,.786,1.326l-.76,1.605,1.639,1.6,1.588-.794a10.47,10.47,0,0,0,1.343.752l.144,1.766,2.213.566.972-1.487h1.554l1,1.461,2.2-.617.093-1.774a9.19,9.19,0,0,0,1.326-.794l1.605.769,1.605-1.639-.845-1.588a8.828,8.828,0,0,0,.76-1.343l1.766-.144.566-2.213-1.436-.963h0V128.3L534.5,127.3l-.617-2.2-1.782-.1a9.3,9.3,0,0,0-.786-1.326Zm-3.48,12.038a7.079,7.079,0,1,1,2.014-5.036,7.088,7.088,0,0,1-2.014,5.036Z" transform="translate(-512.432 -118.101)" fill="#7bb9f5"/>
    <path id="Trazado_2185" data-name="Trazado 2185" d="M532.086,121.992c-.549-.532-1.1-1.064-1.639-1.605h-.059l-.963.482a1.977,1.977,0,0,1-.532.27c-.2,0-.5-.245-.7-.355s-.583-.228-.667-.414a1.979,1.979,0,0,1-.051-.591c0-.363-.059-.718-.084-1.073a.059.059,0,0,0,0-.051l-2.222-.566a.059.059,0,0,0-.051,0l-.971,1.487v.068a2.011,2.011,0,0,0-1.5,0,.051.051,0,0,0,0-.068l-1.005-1.461a.051.051,0,0,0-.059,0l-2.2.617a.084.084,0,0,0,0,.042l-.059,1.081a2.346,2.346,0,0,1,0,.6c-.085.186-.465.3-.659.422s-.49.4-.693.372a1.968,1.968,0,0,1-.541-.253l-.971-.465a.051.051,0,0,0-.059,0l-1.647,1.706a.051.051,0,0,0,0,.059l.482.963a1.976,1.976,0,0,1,.27.532c0,.2-.245.5-.355.7s-.228.583-.414.676a1.977,1.977,0,0,1-.591,0l-1.073.084a.059.059,0,0,0-.051,0c-.186.743-.372,1.478-.566,2.222a.059.059,0,0,0,0,.051l1.124.735c.262.169.279.161.329.448s-.144.912.118,1.267h-.068l-1.461,1.005v.051c.2.735.405,1.47.617,2.2l1.081.059a2.3,2.3,0,0,1,.591,0c.194.084.313.465.431.659s.4.49.38.693a2.283,2.283,0,0,1-.262.541c-.152.329-.3.65-.465.971a.051.051,0,0,0,0,.059l1.639,1.6a.051.051,0,0,0,.059,0l.963-.482a1.976,1.976,0,0,1,.532-.27c.2,0,.5.245.7.355s.583.228.667.414a2.3,2.3,0,0,1,.051.591c0,.363.059.718.084,1.073a.059.059,0,0,0,0,.051l2.222.566a.059.059,0,0,0,.051,0l.591-.9c.084-.127.194-.414.321-.5a2.347,2.347,0,0,1,.794-.042c.228,0,.625-.093.794,0s.245.372.329.5l.608.845a.051.051,0,0,0,.059,0l2.2-.617a.059.059,0,0,0,0-.042,6.47,6.47,0,0,1,.059-1.073,2.343,2.343,0,0,1,0-.6c.084-.186.465-.313.659-.431s.49-.4.693-.38a2.279,2.279,0,0,1,.541.262l.971.465a.051.051,0,0,0,.059,0c.532-.549,1.064-1.1,1.605-1.639V135.9l-.482-.963a2.291,2.291,0,0,1-.279-.532c0-.2.253-.5.363-.7s.228-.583.405-.667a1.79,1.79,0,0,1,.6-.051l1.073-.084a.059.059,0,0,0,.051,0c.186-.743.372-1.478.566-2.222a.051.051,0,0,0,0-.051l-1.487-.971a.051.051,0,0,0-.068,0,2.534,2.534,0,0,0,.1-1.132c0-.414,0-.372.3-.591l1.107-.76a.051.051,0,0,0,0-.059c-.2-.735-.414-1.47-.617-2.2a.076.076,0,0,0-.051,0l-1.073-.059a2.018,2.018,0,0,1-.6,0c-.186-.076-.3-.456-.422-.65s-.4-.49-.38-.693a2.283,2.283,0,0,1,.262-.541c.152-.329.313-.65.465-.971,0-.059-.059-.11-.084-.051a6.819,6.819,0,0,0-.7,1.461c-.076.507.481,1.039.726,1.512h0a5.482,5.482,0,0,1,1.74.084c.211.177.152.558.2.718a8.267,8.267,0,0,1,.33,1.191c0,.329.118.135-.127.38a7.441,7.441,0,0,1-.946.642c-.574.422-.253,1.107-.3,1.8a.051.051,0,0,0,.093,0c-.068.144,1.335.845,1.368,1.039a4.224,4.224,0,0,1-.3,1.174,5.141,5.141,0,0,1-.22.9c-.389.3-1.326-.11-1.766.144a6.65,6.65,0,0,0-.777,1.369,1.26,1.26,0,0,0,.2.431c.135.27.558.845.558,1.107,0,.152-.313.405-.482.583a5.2,5.2,0,0,1-.9.921c-.279.152-.245.093-.65-.1-.245-.118-.76-.5-1.031-.49s-.625.355-.845.49-.465.186-.566.355a5.622,5.622,0,0,0-.068,1.233c0,.482.068.422-.346.566s-.963.27-1.436.405-.38.11-.659-.287l-.7-1.039a6.118,6.118,0,0,0-1.58,0c-.177.1-.346.524-.448.684s-.422.76-.532.786a3.944,3.944,0,0,1-1.242-.313,4.956,4.956,0,0,1-.9-.22c-.152-.194-.076-.98-.1-1.225a1.47,1.47,0,0,0-.051-.549,5.34,5.34,0,0,0-1.385-.769c-.507,0-1.183.845-1.6.76a7.659,7.659,0,0,1-1.571-1.512c-.068-.5.786-1.1.76-1.622a5.559,5.559,0,0,0-.845-1.352,2.678,2.678,0,0,0-.9-.051c-.372,0-.727.042-.887-.177a5.566,5.566,0,0,1-.414-1.47c-.135-.507-.236-.482.177-.76a7.353,7.353,0,0,0,1.047-.769h.084a5.751,5.751,0,0,0,0-1.58c-.051-.11-.355-.237-.448-.3s-.946-.456-1.031-.676a4.336,4.336,0,0,1,.194-.71,5.065,5.065,0,0,1,.329-1.3c.135-.2.161-.144.515-.169a3.971,3.971,0,0,0,1.191-.093c.2-.118.253-.346.38-.583s.482-.634.473-.845a4.453,4.453,0,0,0-.482-.963c-.118-.237-.3-.507-.27-.617.059-.262.693-.718.845-.9s.473-.625.651-.667a4.682,4.682,0,0,1,.929.456,2.612,2.612,0,0,0,.642.3c.3,0,1.064-.642,1.369-.794a5.989,5.989,0,0,1,.084-1.563c.135-.321.642-.346,1.081-.473s.9-.38,1.166-.16.743,1.3.9,1.225c-.042,0-.042.1,0,.093a10.725,10.725,0,0,1,1.563,0,.051.051,0,0,0,0-.093c.127.068.693-1.1.845-1.25s.743,0,1.174.135.971.11,1.09.439-.1,1.149.118,1.571a5.609,5.609,0,0,0,1.4.794c.355,0,.9-.456,1.216-.608.49-.253.465-.068.9.346l1.073,1.048S532.128,122.034,532.086,121.992Z" transform="translate(-512.42 -118.083)" fill="#7bb9f5"/>
    <path id="Trazado_2186" data-name="Trazado 2186" d="M529.262,134.784a7.037,7.037,0,1,1,.752-8.921,7.147,7.147,0,0,1-.752,8.921.051.051,0,0,0,.068.068,7.138,7.138,0,1,0-9.014.988,7.214,7.214,0,0,0,9.014-.988C529.372,134.784,529.3,134.784,529.262,134.784Z" transform="translate(-513.144 -118.804)" fill="#7bb9f5"/>
  </g>
  <g id="Grupo_1036" data-name="Grupo 1036" transform="translate(307.958 86.749)" opacity="0.53">
    <path id="Trazado_2187" data-name="Trazado 2187" d="M419.929,160.852,416.8,154.39V128.067a1.377,1.377,0,0,0-1.377-1.377h-37.5a1.377,1.377,0,0,0-1.377,1.377v26.542a1.377,1.377,0,0,0,1.377,1.377h34.306Z" transform="translate(-376.55 -126.69)" fill="#7bb9f5"/>
    <path id="Trazado_2188" data-name="Trazado 2188" d="M380.023,135.345h18.7a.313.313,0,1,0,0-.625h-18.7a.313.313,0,0,0,0,.625Z" transform="translate(-377.041 -127.937)" fill="#fff"/>
    <path id="Trazado_2189" data-name="Trazado 2189" d="M380.031,139.464h18.7a.321.321,0,0,0,0-.634h-18.7a.321.321,0,0,0,0,.634Z" transform="translate(-377.049 -128.575)" fill="#fff"/>
    <path id="Trazado_2190" data-name="Trazado 2190" d="M380.023,143.575h18.7a.313.313,0,1,0,0-.625h-18.7a.313.313,0,0,0,0,.625Z" transform="translate(-377.041 -129.214)" fill="#fff"/>
    <path id="Trazado_2191" data-name="Trazado 2191" d="M397.221,150.064h18.7a.321.321,0,0,0,0-.634h-18.7a.321.321,0,0,0,0,.634Z" transform="translate(-379.717 -130.22)" fill="#fff"/>
    <path id="Trazado_2192" data-name="Trazado 2192" d="M397.221,152.684h18.7a.321.321,0,0,0,0-.634h-18.7a.321.321,0,0,0,0,.634Z" transform="translate(-379.717 -130.627)" fill="#fff"/>
    <path id="Trazado_2193" data-name="Trazado 2193" d="M397.221,155.3h18.7a.321.321,0,0,0,0-.634h-18.7a.321.321,0,0,0,0,.634Z" transform="translate(-379.717 -131.034)" fill="#fff"/>
  </g>
  <g id="Grupo_1037" data-name="Grupo 1037" transform="translate(165.016 108.299)" opacity="0.53">
    <path id="Trazado_2194" data-name="Trazado 2194" d="M207.34,205.758l4.908-10.137V154.354a2.163,2.163,0,0,1,2.163-2.154h58.779a2.154,2.154,0,0,1,2.163,2.154v41.6a2.163,2.163,0,0,1-2.163,2.163H219.412Z" transform="translate(-207.34 -152.2)" fill="#7bb9f5"/>
    <path id="Trazado_2195" data-name="Trazado 2195" d="M276.851,165.818H247.52a.5.5,0,0,1,0-.988h29.33a.5.5,0,0,1,0,.988Z" transform="translate(-213.51 -154.161)" fill="#fff"/>
    <path id="Trazado_2196" data-name="Trazado 2196" d="M276.85,172.218H247.52a.5.5,0,0,1,0-.988h29.33a.5.5,0,0,1,0,.988Z" transform="translate(-213.51 -155.154)" fill="#fff"/>
    <path id="Trazado_2197" data-name="Trazado 2197" d="M276.85,178.668H247.52a.5.5,0,0,1,0-.988h29.33a.5.5,0,0,1,0,.988Z" transform="translate(-213.51 -156.155)" fill="#fff"/>
    <path id="Trazado_2198" data-name="Trazado 2198" d="M249.9,188.818H220.57a.5.5,0,0,1,0-.988H249.9a.5.5,0,0,1,0,.988Z" transform="translate(-209.327 -157.731)" fill="#fff"/>
    <path id="Trazado_2199" data-name="Trazado 2199" d="M249.89,192.94H220.56a.49.49,0,0,1,0-.98h29.33a.49.49,0,0,1,0,.98Z" transform="translate(-209.316 -158.372)" fill="#fff"/>
    <path id="Trazado_2200" data-name="Trazado 2200" d="M249.9,197.048H220.57a.5.5,0,0,1,0-.988H249.9a.5.5,0,0,1,0,.988Z" transform="translate(-209.327 -159.009)" fill="#fff"/>
  </g>
  <path id="Trazado_2201" data-name="Trazado 2201" d="M110.117,395.88a68.908,68.908,0,0,1-.752,15.544,1.352,1.352,0,0,0,1.039,1.8,46.631,46.631,0,0,0,20.562,4.224,12.993,12.993,0,0,0-2.365-1.732,21.026,21.026,0,0,1-9.174-19.818" transform="translate(-27.102 -81.729)" fill="#ecab95"/>
  <path id="Trazado_2202" data-name="Trazado 2202" d="M115.588,416.489a9.8,9.8,0,0,0,5.018,1.487c1.766-.1,3.573-1.394,3.666-3.159,2.762.093,4.891,2.365,7.375,3.582,3.785,1.858,8.312,1.2,12.384,2.3a4.359,4.359,0,0,1,2.534,1.478,1.884,1.884,0,0,1-.329,2.644,2.66,2.66,0,0,1-.921.287,63.679,63.679,0,0,1-26.7-.845,5.744,5.744,0,0,0-2.686-.245c-.617.152-1.166.507-1.782.659a5.54,5.54,0,0,1-2.323-.093l-4.351-.8a1.943,1.943,0,0,1-1.149-.49,1.834,1.834,0,0,1-.355-.921c-.355-1.985.684-3.616.9-5.618a8.253,8.253,0,0,1,1.385-3.379c1.132-1.276,1.537-.389,3.075.346a29.26,29.26,0,0,1,4.224,2.737" transform="translate(-26.576 -84.345)" fill="#0b3b57"/>
  <path id="Trazado_2203" data-name="Trazado 2203" d="M147.364,393.48a68.7,68.7,0,0,1-5.415,14.581,1.36,1.36,0,0,0,.448,2.027A46.665,46.665,0,0,0,160.7,420.36,12.107,12.107,0,0,0,159.013,418a21.06,21.06,0,0,1-2.737-21.677" transform="translate(-32.13 -81.357)" fill="#ecab95"/>
  <path id="Trazado_2204" data-name="Trazado 2204" d="M145.809,415.078a9.63,9.63,0,0,0,4.68,2.154c1.732.135,3.675-.845,4.013-2.534,2.678.473,4.427,2.99,6.674,4.519,3.43,2.34,7.932,2.332,11.742,3.962a4.351,4.351,0,0,1,2.272,1.8,1.867,1.867,0,0,1-.693,2.534,2.72,2.72,0,0,1-.938.144,62.7,62.7,0,0,1-25.884-4.562,5.6,5.6,0,0,0-2.585-.617c-.617.059-1.208.338-1.825.4a5.339,5.339,0,0,1-2.247-.422l-4.122-1.377a1.909,1.909,0,0,1-1.048-.634,1.935,1.935,0,0,1-.22-.955c-.068-1.977,1.166-3.421,1.69-5.339a8.16,8.16,0,0,1,1.816-3.058c1.276-1.081,1.554-.161,2.948.769a27.882,27.882,0,0,1,3.759,3.261" transform="translate(-31.191 -84.015)" fill="#0b3b57"/>
  <path id="Trazado_2205" data-name="Trazado 2205" d="M110.14,234.844c-4.038,19.117-1.081,38.918-1.428,58.449-.152,8.684-.963,17.343-1.428,26.019a324.636,324.636,0,0,0,1.521,53.144,55.28,55.28,0,0,0,12.832.439l3.709-38.014a205.375,205.375,0,0,1,2.931-21.8c1.064-5.153,2.534-10.213,3.683-15.349a244.175,244.175,0,0,0,3.852-25.546l19.058,41.132a20.139,20.139,0,0,1,2.1,6.285c.262,2.61-.507,5.2-1.276,7.7q-7.324,23.653-16.794,46.546l10.255,4.477a2.712,2.712,0,0,0,1.774.329c.76-.22,1.157-1.022,1.461-1.749l19.784-46.462c2.129-4.993,4.3-10.3,3.607-15.687a83.69,83.69,0,0,0-2.078-12.258c-1.2-4.621-3.573-10.737-4.731-15.366-4.68-18.788-10.931-35.193-15.62-53.98a6.564,6.564,0,0,0-1.521-3.295,6.361,6.361,0,0,0-2.923-1.309,144.826,144.826,0,0,0-31.974-4.334c-1.69-.042-3.523,0-4.815,1.073" transform="translate(-26.72 -55.078)" fill="#1355c6"/>
  <path id="Trazado_2206" data-name="Trazado 2206" d="M141.186,117.14a30.834,30.834,0,0,1,.135,7.223,9.521,9.521,0,0,1-.845,3.464c-1.25,2.382-3.979,3.506-6.5,4.443,1.833,1.47,3.168,3.489,4.942,5.026,5.069,4.393,13.161,3.987,18.686.2a7.349,7.349,0,0,1-1.842-10.484" transform="translate(-30.936 -38.459)" fill="#db917d"/>
  <path id="Trazado_2207" data-name="Trazado 2207" d="M164.734,102.6a34.01,34.01,0,0,1-6.116,21.533c-1,1.419-2.255,2.847-3.953,3.168a5.913,5.913,0,0,1-3.616-.71c-5.246-2.585-8.177-8.38-9.419-14.091-1.436-6.589-.743-14.361,4.334-18.779" transform="translate(-32.021 -34.823)" fill="#ecab95"/>
  <path id="Trazado_2208" data-name="Trazado 2208" d="M141.272,114.532a7,7,0,0,1-3.616-6.691,1.605,1.605,0,0,1,.372-1.014,1.242,1.242,0,0,1,1.445-.1,3.556,3.556,0,0,1,1.09,1.1" transform="translate(-31.503 -36.813)" fill="#ecab95"/>
  <path id="Trazado_2209" data-name="Trazado 2209" d="M139.046,103.479c-.8-4.376-.845-8.929,1.2-12.883a13.263,13.263,0,0,1,9.09-6.648,17.039,17.039,0,0,1,11.261,1.8c2.1,1.107,4.021,2.6,6.293,3.252s5.069.482,6.91,2.1a6.615,6.615,0,0,1,1.858,4.68,13.516,13.516,0,0,1-10.272,13.364c-.465.1-1.056.127-1.3-.279A1.14,1.14,0,0,1,164,108.1c.237-1.69.845-3.827-.515-4.933-4.351,1.951-9.58.752-13.609-1.791-1.69-1.048-3.793-2.34-5.4-1.2-1.259.845-1.284,2.695-1.461,4.224s-1.1,3.379-2.627,3.2l-1.343-4.139" transform="translate(-31.642 -33.262)" fill="#0b3b57"/>
  <path id="Trazado_2210" data-name="Trazado 2210" d="M155.543,111.972a4.511,4.511,0,0,1-4.367-1.014c-.329-.355-.845.177-.524.524a5.238,5.238,0,0,0,5.069,1.208c.473-.1.27-.845-.194-.718Z" transform="translate(-33.508 -37.481)" fill="#282f39"/>
  <path id="Trazado_2211" data-name="Trazado 2211" d="M150.353,107.352a4.748,4.748,0,0,1,3.117.076A23.089,23.089,0,0,1,156,108.9a.313.313,0,0,0,.313-.541,15.509,15.509,0,0,0-3.066-1.69,5.567,5.567,0,0,0-3.067.084.313.313,0,0,0,.16.6Z" transform="translate(-33.421 -36.806)" fill="#0b3b57"/>
  <path id="Trazado_2212" data-name="Trazado 2212" d="M169.038,108.435a5.677,5.677,0,0,0-2.931-.845,15.333,15.333,0,0,0-3.379.845.316.316,0,1,0,.169.608c2.18-.6,3.734-1.191,5.854,0a.321.321,0,0,0,.321-.549Z" transform="translate(-35.363 -36.976)" fill="#0b3b57"/>
  <path id="Trazado_2213" data-name="Trazado 2213" d="M161.527,113.266a2.762,2.762,0,0,0,2.306.752,6.276,6.276,0,0,0,2.881-1.166.373.373,0,1,0-.38-.642,8.947,8.947,0,0,1-1.782.929c-.49.169-1.977.3-2.382-.245C161.89,112.515,161.24,112.895,161.527,113.266Z" transform="translate(-35.201 -37.685)" fill="#282f39"/>
  <path id="Trazado_2214" data-name="Trazado 2214" d="M159.443,112.1c-.237,2.323.3,4.114.482,6.437,0,.346,0,.777-.313.921a.845.845,0,0,1-.355.051h-2.636a.329.329,0,0,1-.127,0c-.093-.051-.093-.186-.076-.3a20.528,20.528,0,0,1,1.284-4.384c.279-.743,1.791-5.238,1.74-2.686" transform="translate(-34.418 -37.562)" fill="#db917d"/>
  <path id="Trazado_2215" data-name="Trazado 2215" d="M158.581,124.532a13.405,13.405,0,0,1-2.534-.169,1.943,1.943,0,0,0-1.385.076c-.051,0-.1.076-.1.127a.3.3,0,0,0,.135.186l1.36.794a2.669,2.669,0,0,0,.845.38,2.9,2.9,0,0,0,1.647-.313,1.166,1.166,0,0,0,.625-.439c.127-.228,0-.583-.228-.608" transform="translate(-34.131 -39.566)" fill="#db917d"/>
  <path id="Trazado_2216" data-name="Trazado 2216" d="M134.879,134.124a14.623,14.623,0,0,0,15.02,7.349c2.044-.3,4.03-.921,5.069-2.686a7.155,7.155,0,0,0,2.619,1.647,6.327,6.327,0,0,1,1.69.845c1.166,1,1.014,2.8.769,4.317-2.3,14.581-3.32,29.322-4.334,44.046l-.845,12.1c-.372,5.373-.743,10.8.127,16.1a2.728,2.728,0,0,1-.042,1.563,2.534,2.534,0,0,1-1.858,1.14,37.845,37.845,0,0,1-22.293-1.411c-1.292-.49-2.678-1.174-3.185-2.467a5.584,5.584,0,0,1,0-2.914c2.239-13.651,1.1-27.624,2.4-41.393.279-2.889.659-5.761.845-8.65a74.339,74.339,0,0,0-1.69-21.964,7.907,7.907,0,0,1-.279-3.675c.684-2.653,3.464-3.3,5.913-3.979" transform="translate(-29.918 -41.09)" fill="#ff6239"/>
  <path id="Trazado_2217" data-name="Trazado 2217" d="M159.434,139.78c-3.649,10.669-2.923,21.22-3.59,32.481-.253,4.351-.752,8.684-.9,13.043-.135,4,0,8.008.169,12l1.352,36.24a2.72,2.72,0,0,0,.338,1.47,2.534,2.534,0,0,0,1.377.845,25.918,25.918,0,0,0,10.568,1.166q-.76-16.051-2.585-31.966a66.271,66.271,0,0,1-.566-7.2,59.864,59.864,0,0,1,.786-8.5c1.318-9.5,2.644-19.016,4.993-28.308,1.132-4.494,2.458-9.436.422-13.592-1.69-3.379-4.874-4.046-8.2-5.854-1.233-.676-2.923-1.149-4.156-1.816" transform="translate(-34.181 -41.973)" fill="#7bb9f5"/>
  <path id="Trazado_2218" data-name="Trazado 2218" d="M172.94,146.56c-1.951,1.69-1.461,5.136-1.588,7.958-.262,5.972-.465,11.945-.177,17.917l.887,18.272c.068,1.326.22,2.838,1.284,3.641s2.669.515,4.013.152a3.092,3.092,0,0,0,1.766-.946,3.058,3.058,0,0,0,.422-1.242c1.859-10.593,1.031-21.465-.237-32.143a35.885,35.885,0,0,0-1.031-5.846c-.752-2.593-2.923-7.113-5.339-7.763" transform="translate(-36.688 -43.026)" fill="#71b3ea"/>
  <path id="Trazado_2219" data-name="Trazado 2219" d="M127.526,190.9c1.309.414,2.593-.634,3.506-1.69,3.32-3.751,5.846-8.448,10.137-10.982,1.233-.727,2.889-1.233,4.046-.372,1.031.769,1.149,2.272,1.031,3.565-.473,5.3-3.235,10.188-6.8,14.141s-7.932,7.088-12.266,10.179" transform="translate(-29.88 -47.814)" fill="#ff4810"/>
  <path id="Trazado_2220" data-name="Trazado 2220" d="M126.542,214.871q7.045-7.214,14.234-14.26c1.048-1.022,2.3-2.12,3.759-1.994a3.3,3.3,0,0,1,2.653,2.323,6.59,6.59,0,0,1-.068,3.683c-1.69,6.3-7.476,10.458-12.9,14.065l-13.111,8.718" transform="translate(-28.938 -51.106)" fill="#ff4810"/>
  <path id="Trazado_2221" data-name="Trazado 2221" d="M129.721,134.74l.515,13.677c.11,3,.22,6,.625,8.971.5,3.666,1.436,7.265,1.825,10.94a65.1,65.1,0,0,1,0,10.982c-1.107,17.867-3.852,35.657-3.582,53.558a1.96,1.96,0,0,1-.3,1.335,1.876,1.876,0,0,1-1.343.456c-4.494.194-9.09-1.419-13.415-.211-1.968.541-3.818,1.69-5.863,1.69a1.791,1.791,0,0,1-1.563-.642,2.112,2.112,0,0,1-.068-1.546c1.9-9.4,1-19.117,1.69-28.722.845-12.764,4.46-25.292,4.486-38.082,0-4.089-.346-8.16-.71-12.232l-1.09-12.443a124.97,124.97,0,0,1,18.838-7.73" transform="translate(-26.66 -41.191)" fill="#7bb9f5"/>
  <path id="Trazado_2222" data-name="Trazado 2222" d="M140.26,198.2l5.271-44.756h29.111L170.976,198.2Z" transform="translate(-21.774 -23.82)" fill="#d6dde8"/>
  <path id="Trazado_2223" data-name="Trazado 2223" d="M106.683,203.006a112.236,112.236,0,0,0,32.1,4c1.808,0,3.81-.194,5.069-1.487,1.09-1.107,1.529-2.957,3-3.464.372,1.081-.431,2.45.279,3.379.591.743,1.749.558,2.653.279a56.728,56.728,0,0,0,7.839-3.075c.465-.22,1.2-.329,1.309.169a.955.955,0,0,1,0,.346c-.693,3.176-3.286,5.668-6.226,7.062a32.053,32.053,0,0,1-9.428,2.306c-7.662,1.064-15.349,2.137-23.087,2.1s-15.561-1.216-22.581-4.469" transform="translate(-25.29 -51.641)" fill="#ecab95"/>
  <path id="Trazado_2224" data-name="Trazado 2224" d="M108.685,143.89c4.4,6.429,5.153,14.961,3.54,22.581s-4.739,14.868-6.361,22.488c-.372,1.757-.591,3.8.617,5.128-3.379,3.235-2.745,5-4.756,9.216-.186.389,0,.49-.5,1.208-.329.439-2.745-1.107-3.193-1.428-3.379-2.382-5.2-2.914-5.432-7.012-.346-5.989,1.225-11.911,2.872-17.681q4.156-14.538,9.14-28.832c.845-2.374,1.816-4.545,4.072-5.668" transform="translate(-24.505 -42.611)" fill="#71b3ea"/>
  <path id="Trazado_2225" data-name="Trazado 2225" d="M393.231,391.372c-1.96,3.219-.684,7.6,1.935,10.34s6.26,4.139,9.782,5.491l15.13,5.8c.887.338,1.968,1.191,1.47,2a1.53,1.53,0,0,1-.718.515c-4.156,1.808-8.912.49-13.347-.414a69.448,69.448,0,0,0-24.751-.549c-2.1.338-5.069.236-5.407-1.859a4,4,0,0,1,.059-1.343q2-12.452,4-24.921" transform="translate(-68.707 -80.263)" fill="#ecab95"/>
  <path id="Trazado_2226" data-name="Trazado 2226" d="M398.7,407.383c-.727.253-1.453,1.428-2.061,2.348-.9,1.4-1.85,1.064-3.514.963a14.657,14.657,0,0,1-4.756-1.428q-4.139-1.749-8.329-3.379a1.96,1.96,0,0,0-1.436-.16c-.574.237-.786.921-.929,1.521l-1.521,6.429a3.624,3.624,0,0,0-.093,1.918,2.746,2.746,0,0,0,.845,1.174c2.686,2.357,6.716,1.96,10.272,1.639a84.474,84.474,0,0,1,21.7.845c4.393.743,9.385,1.69,12.925-1,.634-.49,1.233-1.3.887-2.027a1.867,1.867,0,0,0-.9-.769,42.691,42.691,0,0,0-7.1-2.771l-8.71-2.821c-2.534-.845-5.913-2.34-7.3-2.534" transform="translate(-68.503 -83.247)" fill="#0b3b57"/>
  <path id="Trazado_2227" data-name="Trazado 2227" d="M376.882,278.8c13.28.845,19.793,4.055,21.9,8.515s1.69,11.97,1.749,16.9c.127,24.2-3.894,48.211-7.907,72.075a2.29,2.29,0,0,1-.405,1.124c-.482.583-1.377.532-2.129.439l-10.1-1.284A2.593,2.593,0,0,1,378.4,376a2.644,2.644,0,0,1-.549-1.842c-.667-18.213-2.315-28.874-2.036-50.568.135-10.8,3.818-23.772-4.325-24.329-7.6-.524,4.131-13.474,9.512-17.546" transform="translate(-67.42 -63.554)" fill="#0b3b57"/>
  <path id="Trazado_2228" data-name="Trazado 2228" d="M318.067,305.7c-17.081,27.81-23.113,60.113-28.722,91.783-.329,1.859,2.534,2.661,2.855.786,5.559-31.417,11.472-63.484,28.418-91.074,1-1.622-1.554-3.109-2.534-1.5Z" transform="translate(-55.05 -67.623)" fill="#0b3b57"/>
  <path id="Trazado_2229" data-name="Trazado 2229" d="M353.661,305.7c17.073,27.81,23.1,60.113,28.722,91.783.329,1.859-2.534,2.661-2.847.786-5.567-31.417-11.472-63.484-28.418-91.074-1.005-1.622,1.554-3.109,2.534-1.5Z" transform="translate(-64.608 -67.623)" fill="#0b3b57"/>
  <rect id="Rectángulo_760" data-name="Rectángulo 760" width="63.07" height="7.67" transform="translate(242.844 230.772)" fill="#7bb9f5"/>
  <path id="Trazado_2230" data-name="Trazado 2230" d="M349.541,163.2a30.41,30.41,0,0,0-2.348,9.428,16.338,16.338,0,0,0,1.014,8.312c1.174,2.534,3.624,4.705,6.446,4.849a31.591,31.591,0,0,1-3.379,4,15.839,15.839,0,0,1-24.8-3.708c3.3-.507,5.829-3.548,6.5-6.834a16.013,16.013,0,0,0-1.58-9.749" transform="translate(-60.817 -45.609)" fill="#db917d"/>
  <path id="Trazado_2231" data-name="Trazado 2231" d="M328.732,186.908c5.069,3.548,11.48,4.553,16.346.752a3.657,3.657,0,0,1,1.385-.845,3.168,3.168,0,0,1,1.453.152l14.733,3.979a2.307,2.307,0,0,1,1.225.625,2.222,2.222,0,0,1,.329,1.419c0,18.99-3.92,37.947-2.272,56.861a3.54,3.54,0,0,1-.363,2.424,3.489,3.489,0,0,1-2.534,1.039,88.391,88.391,0,0,1-10.137.676c-8.912-.1-17.816-2.948-26.619-1.571-2.534.4-5.069,1.157-7.7,1.107a1.63,1.63,0,0,1-1.326-.473,1.74,1.74,0,0,1-.22-1.1,271.071,271.071,0,0,0-1.69-37.761c-.726-6.319-1.689-12.671-.929-19.016a3.97,3.97,0,0,1,.845-2.408,4.173,4.173,0,0,1,1.757-.845l15.721-4.993" transform="translate(-58.281 -49.271)" fill="#7bb9f5"/>
  <path id="Trazado_2232" data-name="Trazado 2232" d="M370.389,192a42.083,42.083,0,0,0-2.45,27.227,79.3,79.3,0,0,0,4.055,10.838L376.31,240.1a1.309,1.309,0,0,1,.161.769c-.084.473-.617.693-1.073.845-6.125,1.859-12.469,2.822-18.72,4.173a1.073,1.073,0,0,0-1,1.529c.3,1.951.727,4.106,2.306,5.3a7.087,7.087,0,0,0,2.619,1.081c9.047,2.239,18.585,1.225,27.691-.845,1.4-.321,2.99-.845,3.582-2.12a4.8,4.8,0,0,0,.076-2.762c-1.689-9.926-3.379-19.894-6.446-29.465s-7.687-18.821-14.555-26.188c-.169-.161-.27-.406-.566-.414" transform="translate(-65.336 -50.08)" fill="#71b3ea"/>
  <path id="Trazado_2233" data-name="Trazado 2233" d="M308.282,193.43a42.193,42.193,0,0,1,2.45,27.227,80,80,0,0,1-4.055,10.838l-4.325,10.036a1.377,1.377,0,0,0-.16.769c.093.473.617.693,1.081.845,6.116,1.858,12.469,2.822,18.72,4.173a1.453,1.453,0,0,1,.845.414,1.411,1.411,0,0,1,.127,1.115c-.3,1.951-.726,4.106-2.3,5.3a7.07,7.07,0,0,1-2.627,1.081c-9.047,2.239-18.585,1.225-27.691-.845-1.4-.321-2.99-.845-3.573-2.12a4.8,4.8,0,0,1-.084-2.762c1.69-9.926,3.379-19.894,6.454-29.465s7.687-18.821,14.555-26.188c.169-.161.27-.405.566-.414" transform="translate(-54.617 -50.302)" fill="#71b3ea"/>
  <path id="Trazado_2234" data-name="Trazado 2234" d="M280.22,282.5c4.224-3.075,3.5-4.528,13.626-6.547,14.978-2.99,7.865-9.343,12.207-11.235,5.677-2.467,11.962,1.25,17.926-.4a24.052,24.052,0,0,1,6.133-.608l14.547-.186a15.206,15.206,0,0,1,10.56,2.822l11.4,6.758c4.224,2.534,8.726,5.339,10.627,9.884a6.978,6.978,0,0,1,.22,5.533c-1.183,2.585-4.224,3.632-7,4.325-8.051,2.019-16.464,3.32-24.667,2-6.243-1.005-11.455-1.69-17.74-.988-4.072.439-10.5,1.276-15.569,1.884-11.294,1.343-20.1,2.374-30.411-2.4" transform="translate(-53.638 -61.17)" fill="#0b3b57"/>
  <path id="Trazado_2235" data-name="Trazado 2235" d="M276.043,391.372c1.96,3.219.676,7.6-1.943,10.34s-6.26,4.139-9.782,5.491L249.2,413c-.887.338-1.977,1.191-1.47,2a1.486,1.486,0,0,0,.718.515c4.156,1.808,8.9.49,13.347-.414a69.4,69.4,0,0,1,24.743-.549c2.1.338,5.069.237,5.415-1.858a4.013,4.013,0,0,0-.068-1.343q-1.994-12.452-3.987-24.92" transform="translate(-48.573 -80.263)" fill="#ecab95"/>
  <path id="Trazado_2236" data-name="Trazado 2236" d="M270.113,407.383c.726.253,1.461,1.428,2.061,2.348.912,1.4,1.858,1.064,3.523.963a14.724,14.724,0,0,0,4.756-1.428q4.131-1.749,8.329-3.379a1.96,1.96,0,0,1,1.436-.16c.574.237.786.921.921,1.521l1.521,6.429a3.54,3.54,0,0,1,.1,1.918,2.745,2.745,0,0,1-.845,1.174c-2.686,2.357-6.716,1.96-10.281,1.639a84.472,84.472,0,0,0-21.694.845c-4.393.743-9.385,1.69-12.925-1-.634-.49-1.242-1.3-.9-2.027a1.926,1.926,0,0,1,.9-.769,42.4,42.4,0,0,1,7.1-2.771l8.71-2.822c2.534-.845,5.913-2.34,7.29-2.534" transform="translate(-48.329 -83.247)" fill="#0b3b57"/>
  <path id="Trazado_2237" data-name="Trazado 2237" d="M294.754,278.8c-13.28.845-19.793,4.055-21.9,8.515s-1.69,11.97-1.749,16.9c-.127,24.2,3.894,48.211,7.907,72.075a2.2,2.2,0,0,0,.4,1.124,2.348,2.348,0,0,0,2.137.439l10.078-1.293a2.619,2.619,0,0,0,1.588-.566,2.678,2.678,0,0,0,.541-1.842c.667-18.213,2.315-28.874,2.044-50.568-.144-10.8-3.827-23.772,4.317-24.329,7.645-.524-4.122-13.474-9.5-17.546" transform="translate(-52.223 -63.554)" fill="#0b3b57"/>
  <rect id="Rectángulo_761" data-name="Rectángulo 761" width="64.194" height="38.462" rx="3.09" transform="translate(240.242 170.068)" fill="#d6dde8"/>
  <circle id="Elipse_519" data-name="Elipse 519" cx="3.379" cy="3.379" r="3.379" transform="translate(267.3 185.468)" fill="#c2c9d3"/>
  <path id="Trazado_2238" data-name="Trazado 2238" d="M329.331,133.69a14,14,0,0,0-2.179,5.871c-.279,2.154-.051,4.334-.194,6.488-.11,1.69-.085,3.987-.161,5.677-.228,5.009,1.453,9.2,3.455,13.8a16.263,16.263,0,0,0,2.864,4.917,5.15,5.15,0,0,0,5.162,1.022,23.373,23.373,0,0,0,4.638-2.492c5.694-4.452,7.273-9.428,7.9-16.625a51.929,51.929,0,0,0,0-6.488,23.365,23.365,0,0,0-.845-6.37,7.9,7.9,0,0,0-3.928-4.883" transform="translate(-60.865 -41.028)" fill="#ecab95"/>
  <path id="Trazado_2239" data-name="Trazado 2239" d="M350.564,151.583c-.346,1.005-1.318,2.188-2.23,1.639a1.9,1.9,0,0,1-.684-1.343,18.736,18.736,0,0,0-1.385-4.8,6.108,6.108,0,0,0-3.59-3.269c-2.957-.845-5.812,1.445-8.811,2.087-2.864.617-5.854-.3-8.49-1.6-1.858-.921-3.776-2.247-4.266-4.224s.532-3.937,1.622-5.626a24.287,24.287,0,0,1,7.037-7.5,13.06,13.06,0,0,1,9.816-2.061c2.289.549,4.325,1.85,6.572,2.534a30.253,30.253,0,0,1,3.573,1.124,9.687,9.687,0,0,1,4.976,6.7,26.688,26.688,0,0,1,.194,8.6c-.372,4.114-.845,8.3-2.534,12.072-1.225,2.754-2.737,5.5-5.626,6.353" transform="translate(-59.965 -39.626)" fill="#0b3b57"/>
  <path id="Trazado_2240" data-name="Trazado 2240" d="M334.57,168.786a27.567,27.567,0,0,0,7.079-.186,7.94,7.94,0,0,1-1.977,1.782,3.548,3.548,0,0,1-2.593.541,3.312,3.312,0,0,1-1.36-.667,7.728,7.728,0,0,1-1.149-1.47" transform="translate(-62.075 -46.447)" fill="#db917d"/>
  <path id="Trazado_2241" data-name="Trazado 2241" d="M337.553,156.12l-2.053,7.088c-.059.211-.11.473.059.608a.617.617,0,0,0,.355.093l2.179.051a.5.5,0,0,0,.634-.667c-.313-2.281-.845-4.9-1.174-7.172" transform="translate(-62.21 -44.51)" fill="#db917d"/>
  <path id="Trazado_2242" data-name="Trazado 2242" d="M340.357,150.526a14.953,14.953,0,0,1,6.961.465.316.316,0,0,0,.169-.608,15.7,15.7,0,0,0-7.3-.465C339.791,149.985,339.96,150.594,340.357,150.526Z" transform="translate(-62.912 -43.511)" fill="#0b3b57"/>
  <path id="Trazado_2243" data-name="Trazado 2243" d="M332.812,150.238a15.6,15.6,0,0,0-5.423-.186c-.4.051-.228.659.169.6a14.9,14.9,0,0,1,5.069.186c.4.084.566-.515.169-.6Z" transform="translate(-60.925 -43.544)" fill="#0b3b57"/>
  <path id="Trazado_2244" data-name="Trazado 2244" d="M341.477,155.348a5.068,5.068,0,0,0,5.449-.279c.389-.279,0-.929-.38-.642a4.3,4.3,0,0,1-4.688.279C341.435,154.478,341.063,155.12,341.477,155.348Z" transform="translate(-63.119 -44.236)" fill="#282f39"/>
  <path id="Trazado_2245" data-name="Trazado 2245" d="M332.693,154.578a3.2,3.2,0,0,1-3.6-.507.377.377,0,0,0-.532.532,3.979,3.979,0,0,0,4.5.617c.431-.211.051-.845-.372-.642Z" transform="translate(-61.127 -44.176)" fill="#282f39"/>
  <circle id="Elipse_520" data-name="Elipse 520" cx="3.514" cy="3.514" r="3.514" transform="translate(266.202 107.665)" fill="none" stroke="#282f39" stroke-miterlimit="10" stroke-width="0.5"/>
  <circle id="Elipse_521" data-name="Elipse 521" cx="3.514" cy="3.514" r="3.514" transform="translate(277.412 107.665)" fill="none" stroke="#282f39" stroke-miterlimit="10" stroke-width="0.5"/>
  <path id="Trazado_2246" data-name="Trazado 2246" d="M335.62,154.745a4.35,4.35,0,0,1,3.911,0" transform="translate(-62.238 -44.224)" fill="none" stroke="#282f39" stroke-miterlimit="10" stroke-width="0.5"/>
  <path id="Trazado_2247" data-name="Trazado 2247" d="M354.259,157.945a5.212,5.212,0,0,1,1.377-2.306.735.735,0,0,1,.558-.279c.245,0,.406.262.507.49.541,1.259.11,2.712-.321,4.013a6.142,6.142,0,0,1-1.149,2.315,2.12,2.12,0,0,1-2.34.642" transform="translate(-64.919 -44.392)" fill="#ecab95"/>
  <line id="Línea_164" data-name="Línea 164" y1="0.177" x2="4.376" transform="translate(284.44 110.52)" fill="none" stroke="#282f39" stroke-miterlimit="10" stroke-width="0.5"/>
  <path id="Trazado_2248" data-name="Trazado 2248" d="M329.854,230.46l16.6,33.241a.972.972,0,0,0,.845.482h40.177a.971.971,0,1,0,0-1.943H353.862c-1.8,0-4.224-.448-6,0-.963.245-.11-.287.2.355-.262-.541-.541-1.081-.845-1.622l-8.448-16.946L331.51,229.48c-.558-1.115-2.23-.135-1.69.98Z" transform="translate(-61.321 -55.822)" fill="#0b3b57"/>
  <path id="Trazado_2249" data-name="Trazado 2249" d="M396.11,380.576c1.842,5.913,4.224,11.573,5.854,17.512s2.45,12.258,1.056,18.255a50.148,50.148,0,0,1-1.8,5.7c0,2.1,2.61-.38,3.548-1.36a21.422,21.422,0,0,0,4.993-8.448c1.918-6.15,1.048-13.1,4.063-18.8a22.9,22.9,0,0,0,2.154-4.224c.422-1.537.135-3.438-1.2-4.308a6.756,6.756,0,0,0-1.69-.65,15.848,15.848,0,0,1-11.033-13.339" transform="translate(-71.628 -77.855)" fill="#093b57"/>
  <path id="Trazado_2250" data-name="Trazado 2250" d="M366.364,293.25c-.845,6.344-2.315,14.5-.177,20.528,7.231,20.435,16.9,39.51,26.3,59.032.084.177-.194-.042,0,0s-.169.042,0,0c3.514-.887,6.606-3.126,8.836-4.6-4.224-17.056-5.55-35.328-14.741-50.3-1.69-2.754-3.666-5.423-4.6-8.524s-.566-6.859,1.858-9.005c3.219-2.838,9.064-2.163,11.1-5.913" transform="translate(-66.811 -65.798)" fill="#ff4810"/>
  <path id="Trazado_2251" data-name="Trazado 2251" d="M450.995,174.853c2.129,2.9,2.534,6.7,2.484,10.289a11.683,11.683,0,0,1-.3,2.923,13.115,13.115,0,0,1-1.005,2.45q-2.872,5.8-5.837,11.556c1.884.363,3.709-.718,5.322-1.757l6.758-4.359a81.367,81.367,0,0,0,10.635-7.679,14.918,14.918,0,0,1-3.852-5.364,22.571,22.571,0,0,1-1.309-10.551c.27-3.565.98-7.1,1.284-10.661" transform="translate(-79.426 -45.376)" fill="#dd9885"/>
  <path id="Trazado_2252" data-name="Trazado 2252" d="M360.477,387.864c-.389,6.141-.194,12.317-.845,18.45s-2.12,12.308-5.567,17.411a53.547,53.547,0,0,1-3.725,4.68c-.752,1.968,2.534.574,3.793,0a21.439,21.439,0,0,0,7.73-6.108c4-5.069,5.685-11.827,10.543-16.05a22.435,22.435,0,0,0,3.531-3.21c.955-1.276,1.369-3.151.431-4.443a6.362,6.362,0,0,0-1.377-1.225,15.865,15.865,0,0,1-5.525-16.447" transform="translate(-64.506 -79.407)" fill="#093b57"/>
  <path id="Trazado_2253" data-name="Trazado 2253" d="M467.663,263.657c1.377,4.469,2.771,8.98,3.151,13.634s-.321,9.554-2.847,13.516c-4.849,7.527-14.792,9.656-23.721,10.4-21.55,1.8-43.21-.608-64.836-.794-2.923,0-6.623.541-7.392,3.379-.431,1.571.3,3.2.912,4.714,3.852,9.6,2.855,20.426,1.048,30.614S369.585,359.5,370.43,369.8c.11,1.25.22,2.661-.6,3.607a4.511,4.511,0,0,1-2.129,1.141l-6.454,2.087Q357.759,338,356.517,299.2a33.741,33.741,0,0,1,.625-9.723c.828-3.151,2.72-6.184,5.643-7.6A45.621,45.621,0,0,1,371.4,279.5c26.956-4.486,43.455-5.7,61.913-8.667,6.319-1.022,13.432-3.219,16.051-9.047" transform="translate(-65.471 -60.914)" fill="#ff6239"/>
  <path id="Trazado_2254" data-name="Trazado 2254" d="M427.093,261.805c-3.877-.338-8.388-1.039-12.266-1.377-7.155-.625-13.474-.338-20.646-.591-1.96-.068-4.917.1-6.876.237-5.111.346-9.14,1.884-14.023,3.379a6.065,6.065,0,0,0-2.9,1.977c-.634.845-.684,2.146-1.5,2.855.473.3,1.115-.042,1.461-.49a7.007,7.007,0,0,1,1.031-1.343,13.734,13.734,0,0,1,3.176-1.047c2.534-.329,3.379-.076,5.913-.406a7.6,7.6,0,0,1,2.348-.059c1.816.338,3.1.946,5.161.549a6.023,6.023,0,0,0,2.171-.921c1.9-1.385,4.089-.076,6.319.684a47.021,47.021,0,0,0,5.913,1.478l10.754,2.23a93.046,93.046,0,0,0,16.405,2.4" transform="translate(-67.401 -60.608)" fill="#ecab95"/>
  <path id="Trazado_2255" data-name="Trazado 2255" d="M466.316,189.68a25.343,25.343,0,0,1-16.735,11.877,4.9,4.9,0,0,0-2.129.743,4.46,4.46,0,0,0-1.1,1.605l-3.379,6.9c-1.216,2.534-2.458,5.069-2.737,7.831-.515,5.069,2.239,9.816,3.97,14.614a37.93,37.93,0,0,1,.845,22.809,1.85,1.85,0,0,0,.076,1.69,1.774,1.774,0,0,0,.574.372c4.655,2.213,9.782,3.193,14.851,4.148,4,.752,8.076,1.512,12.139,1.174a22.867,22.867,0,0,0,7.5-1.935,11.535,11.535,0,0,0-2.4-4.224c-5.508-7.755-5.981-18.289-3.092-27.353,1.1-3.438,2.644-6.758,3.261-10.306.946-5.423-.355-11.05-2.678-16.051s-5.618-9.453-8.9-13.879" transform="translate(-78.469 -49.72)" fill="#feb101"/>
  <path id="Trazado_2256" data-name="Trazado 2256" d="M440.517,260.255c-1.909.49-3.734-1.419-5.694-1.208a.643.643,0,0,0-.355.127.718.718,0,0,0-.152.574,52.915,52.915,0,0,1-.921,11.193.575.575,0,0,0,0,.338.524.524,0,0,0,.414.211,42.238,42.238,0,0,0,5.913.524" transform="translate(-77.412 -60.485)" fill="#ef8f06"/>
  <path id="Trazado_2257" data-name="Trazado 2257" d="M436.446,260.7a.921.921,0,1,1-.051,0" transform="translate(-77.743 -60.745)" fill="#feb101"/>
  <path id="Trazado_2258" data-name="Trazado 2258" d="M464.025,197.623a13.112,13.112,0,0,0-7.1,7.6,30.09,30.09,0,0,0-1.69,10.475c-.11,4.553.144,9.115,0,13.66a25.891,25.891,0,0,1-1.943,9.63,15.7,15.7,0,0,1-8.988,8.2,8.448,8.448,0,0,0-2.838,1.318c-1.858,1.605-1.411,4.511-1.335,6.961a16.734,16.734,0,0,1-1.2,6.64,3.328,3.328,0,0,0-.372,1.968,2.94,2.94,0,0,0,.845,1.242,29.862,29.862,0,0,0,21.119,8.591,22.564,22.564,0,0,0,12.671-3.7c4.393-3.058,7.24-7.983,8.65-13.145s1.5-10.593,1.284-15.941A143.019,143.019,0,0,0,479.29,213.5a29.333,29.333,0,0,0-3.48-9.233,16.287,16.287,0,0,0-7.755-6.285,5.778,5.778,0,0,0-4.3-.279" transform="translate(-78.214 -50.921)" fill="#ffa000"/>
  <path id="Trazado_2259" data-name="Trazado 2259" d="M444.93,263.934a32.945,32.945,0,0,0,9.216-.338c5.736-1.326,10.433-5.753,13.085-10.982s3.472-11.261,3.472-17.149c0-1.292,0-2.593.084-3.886.955.068,1.445,1.157,1.69,2.078a63.518,63.518,0,0,1,2.4,20.274,28.926,28.926,0,0,1-1,6.919,11.4,11.4,0,0,1-2.957,5.2,12.783,12.783,0,0,1-3.261,2.112,18.653,18.653,0,0,1-8.211,2.053c-5.28-.084-9.985-3.168-14.361-6.15" transform="translate(-79.207 -56.224)" fill="#ef8f06"/>
  <path id="Trazado_2260" data-name="Trazado 2260" d="M451.49,256c3.835-1.571,6.674-4.993,8.405-8.76a48.161,48.161,0,0,0,3.244-11.953,2.348,2.348,0,0,1,.574,1.487,37.962,37.962,0,0,1,.515,7.7,12.587,12.587,0,0,1-2.577,7.147A12.975,12.975,0,0,1,451.515,256" transform="translate(-80.225 -56.8)" fill="#ef8f06"/>
  <path id="Trazado_2261" data-name="Trazado 2261" d="M446.918,144.54a25.721,25.721,0,0,0-5.17,4.773,8.642,8.642,0,0,0-1.85,6.6,11.377,11.377,0,0,1,.524,2.931c-.118,1.69-1.292,2.982-2.534,4.224-.448.431-.845,1.031-.448,1.529s.98.6,1.352.938a1.952,1.952,0,0,1,.5,1.183l1.377,7.8a3.438,3.438,0,0,0,.456,1.394c.845,1.216,2.678.887,4.08.431l5.2-1.69a36.367,36.367,0,0,0,7-2.855,12.333,12.333,0,0,0,5.187-5.347,15.207,15.207,0,0,0,.946-3.168,20.538,20.538,0,0,0,.059-9.689,10.221,10.221,0,0,0-6.209-7.054" transform="translate(-78.019 -42.712)" fill="#ecab95"/>
  <path id="Trazado_2262" data-name="Trazado 2262" d="M440.458,174.279a3.244,3.244,0,0,0,1.977-.845,2.239,2.239,0,0,0,.71-.955,5.213,5.213,0,0,1-1.69.313,13.6,13.6,0,0,0-1.445,0l.262,1.47Z" transform="translate(-78.443 -47.05)" fill="#fe4810"/>
  <path id="Trazado_2263" data-name="Trazado 2263" d="M441.951,160.829c1.96.465,4.224.042,5.136-1.926.211-.431-.431-.845-.642-.38-.786,1.69-2.644,1.977-4.291,1.588-.473-.11-.667.608-.2.718Z" transform="translate(-78.703 -44.851)" fill="#282f39"/>
  <path id="Trazado_2264" data-name="Trazado 2264" d="M441.651,156.654c1.554-1.157,3.666-2.306,5.651-1.647.456.152.65-.566.2-.718-2.18-.726-4.52.439-6.234,1.69-.38.287,0,.938.38.642Z" transform="translate(-78.614 -44.191)" fill="#282f39"/>
  <circle id="Elipse_522" data-name="Elipse 522" cx="2.315" cy="2.315" r="2.315" transform="translate(367.708 118.731)" fill="#fe4810" opacity="0.42"/>
  <path id="Trazado_2265" data-name="Trazado 2265" d="M466.51,140.377a20.341,20.341,0,0,1,4.173-12,18.39,18.39,0,0,1,10.7-6.758,11.227,11.227,0,0,1,5.626.118c3.937,1.233,6.479,5.449,6.462,9.571s-2.239,8.017-5.28,10.8a32.7,32.7,0,0,1-10.7,6.04" transform="translate(-82.557 -39.107)" fill="#0b3b57"/>
  <path id="Trazado_2266" data-name="Trazado 2266" d="M457.15,161.269a4.46,4.46,0,0,1,3.159,2.7,9.638,9.638,0,0,1,.6,4.224,68.569,68.569,0,0,1-1.293,8.684,24.5,24.5,0,0,0-.287,8.735,10.484,10.484,0,0,0,4.612,7.172,11.92,11.92,0,0,1-2.669-6.758,17.444,17.444,0,0,1,1.056-7.223c.363-1.014.794-2,1.183-3.007,1.394-3.616,2.2-7.6,1.25-11.362a6.884,6.884,0,0,0-1.335-2.813,7.324,7.324,0,0,0-4.41-2.154" transform="translate(-81.104 -45.03)" fill="#0b3b57"/>
  <path id="Trazado_2267" data-name="Trazado 2267" d="M444,146.54a15.875,15.875,0,0,0,9,12.19,3.8,3.8,0,0,0,1.732.405,13.345,13.345,0,0,0,1.5-.346c2.087-.4,4.072,1.377,4.731,3.379s.355,4.224.152,6.31a21.408,21.408,0,0,0,.938,9.9c2.424,6.082,9.1,9.681,11.514,15.772,1.047,2.644,1.208,5.559,2.087,8.262a17.477,17.477,0,0,0,15.079,11.548,19.548,19.548,0,0,0,17.2-8.608,29.835,29.835,0,0,0,3.3-6.952,25.215,25.215,0,0,0,1.571-7.6c.135-7.485-5.069-14.3-11.658-17.909-5.347-2.948-11.827-4.334-15.831-8.946-5.474-6.3-4.393-16.414-9.749-22.809-4.9-5.854-13.888-6.7-21.119-4.224-4.705,1.58-9.36,4.824-10.441,9.673" transform="translate(-79.062 -41.325)" fill="#0b3b57"/>
  <path id="Trazado_2268" data-name="Trazado 2268" d="M491.862,221.7c-.482-3.742-5.989-4.013-6.04,0-.262,19.21-6.589,39.113-19.353,53.786-13.626,15.679-33.453,18.238-53.153,16.769a2.593,2.593,0,0,0-2.9,2.729,2.458,2.458,0,0,0,2.1,3.2c22.657,3.573,52.2,7.67,68.1-13.17C493.678,267.887,494.523,242.206,491.862,221.7Z" transform="translate(-73.831 -54.238)" fill="#093b57"/>
  <path id="Trazado_2269" data-name="Trazado 2269" d="M435.789,311.778c-17.461,28.426-23.653,61.457-29.364,93.845-.338,1.9,2.577,2.712,2.914.8,5.685-32.1,11.734-64.912,29.06-93.118A1.513,1.513,0,0,0,435.789,311.778Z" transform="translate(-73.225 -68.562)" fill="#0b3b57"/>
  <path id="Trazado_2270" data-name="Trazado 2270" d="M472.169,311.778c17.461,28.426,23.653,61.457,29.364,93.845.338,1.9-2.577,2.712-2.914.8-5.685-32.1-11.734-64.912-29.051-93.118A1.51,1.51,0,0,1,472.169,311.778Z" transform="translate(-82.995 -68.562)" fill="#0b3b57"/>
  <path id="Trazado_2271" data-name="Trazado 2271" d="M405.437,405.292,368.952,288.926l-5.3-16.9a1.529,1.529,0,1,0-2.914.9l36.477,116.315,5.305,16.9a1.529,1.529,0,1,0,2.914-.9Z" transform="translate(-66.121 -62.318)" fill="#02073c"/>
  <path id="Trazado_2272" data-name="Trazado 2272" d="M159.675,406.13l36.477-116.349,5.305-16.9a1.529,1.529,0,1,0-2.914-.9l-36.477,116.4-5.305,16.9a1.529,1.529,0,1,0,2.914.9Z" transform="translate(-34.456 -62.312)" fill="#02073c"/>
  <rect id="Rectángulo_762" data-name="Rectángulo 762" width="212.644" height="3.235" rx="1.13" transform="translate(123.758 208.361)" fill="#02073c"/>
</svg>
