<svg xmlns="http://www.w3.org/2000/svg" width="543.526" height="520.658" viewBox="0 0 543.526 520.658">
  <g id="Grupo_4283" data-name="Grupo 4283" transform="translate(-569.711 -0.186)">
    <g id="Grupo_4282" data-name="Grupo 4282">
      <g id="Grupo_4280" data-name="Grupo 4280" transform="translate(2478 7630)">
        <g id="Grupo_4279" data-name="Grupo 4279" transform="translate(-1908.289 -7629.814)">
          <path id="Trazado_8884" data-name="Trazado 8884" d="M.155,308.049c-1.791,21.839,12.168,41.211,31.178,43.267a30.268,30.268,0,0,0,5.819.061c6.006.377,75.717-6.694,95.895,40.693,10.095,22.5,29.63,38.815,53.195,41.364,20.728,2.242,40.135-6.638,53.745-22.379l29.136-29.927c13.8-14.759,31.206-24.3,49.873-27.342l54.8-8.924a85.616,85.616,0,0,0,10.7-1.742l.131-.022v-.009c41.391-9.5,74.244-49.206,78.4-99.964,5.08-61.971-34.529-116.939-88.47-122.775a86.04,86.04,0,0,0-15.866-.246l-53.919-.832c-29.53-.455-57.086-17.145-74.105-44.872-4.566-7.44-9.711-17.917-10.309-19.87-.005-.015-.044-.022-.063-.033C208.1,25.158,183.191,3.7,152.965.428c-45.76-4.951-86.348,33.654-90.658,86.225-.059.716-5.287,106.4-5.287,106.4-.008.153-.017.306-.026.46C55.535,218.717,46.1,242.446,30.635,260.4L10.916,282.825A42.007,42.007,0,0,0,.155,308.049Z" transform="matrix(0.978, 0.208, -0.208, 0.978, 90.187, 0)" fill="#f1f1f1" opacity="0.634"/>
          <g id="Grupo_4278" data-name="Grupo 4278" transform="translate(92.814 73.726)">
            <rect id="Rectángulo_2581" data-name="Rectángulo 2581" width="288.77" height="196.187" rx="30" transform="matrix(0.829, -0.559, 0.559, 0.829, 0, 178.29)" fill="#d4d2d1"/>
            <path id="Trazado_7354" data-name="Trazado 7354" d="M423.841,389.168a5.88,5.88,0,0,1-.378-11.748,59.583,59.583,0,0,0,16.444-4.341,70.941,70.941,0,0,0,30.782-24.216,5.88,5.88,0,0,1,9.492,6.945c-22.634,30.935-54.619,33.266-55.97,33.351C424.088,389.165,423.964,389.168,423.841,389.168Z" transform="translate(-188.275 -33.981)" fill="#74818e"/>
            <path id="Trazado_7355" data-name="Trazado 7355" d="M244.988,298.511a5.88,5.88,0,0,1,11.748-.378,59.6,59.6,0,0,0,4.341,16.445,70.944,70.944,0,0,0,24.216,30.781,5.88,5.88,0,1,1-6.945,9.492c-30.935-22.634-33.266-54.618-33.35-55.97C244.992,298.758,244.988,298.634,244.988,298.511Z" transform="translate(-237.59 -49.324)" fill="#74818e"/>
            <path id="Trazado_7356" data-name="Trazado 7356" d="M396.528,120.03a5.881,5.881,0,0,1-7.582,8.983,59.607,59.607,0,0,0-15.126-7.78,70.952,70.952,0,0,0-39.078-2.607,5.88,5.88,0,0,1-2.4-11.512c37.521-7.838,62.846,11.836,63.906,12.676C396.342,119.868,396.437,119.948,396.528,120.03Z" transform="translate(-214.021 -102.741)" fill="#74818e"/>
            <path id="Trazado_7357" data-name="Trazado 7357" d="M268.352,297.329l33.873-17.767,12.758,33.567-33.563,11.842Z" transform="translate(-230.929 -53.052)" fill="#fda080"/>
            <path id="Trazado_7358" data-name="Trazado 7358" d="M276.836,296.842s10.659-2.2,15.191,0,8.407,15.673,8.407,15.673l22.343,1.592L302.562,276.13l-20.948,9.924Z" transform="translate(-228.511 -54.03)" fill="#f4907c"/>
            <circle id="Elipse_641" data-name="Elipse 641" cx="11.426" cy="11.426" r="11.426" transform="translate(267.56 228.975) rotate(-76.769)" fill="gray" opacity="0.4"/>
            <circle id="Elipse_642" data-name="Elipse 642" cx="11.426" cy="11.426" r="11.426" transform="matrix(0.229, -0.973, 0.973, 0.229, 222.49, 78.446)" fill="gray" opacity="0.4"/>
            <circle id="Elipse_643" data-name="Elipse 643" cx="11.426" cy="11.426" r="11.426" transform="translate(60.377 164.255) rotate(-76.666)" fill="gray" opacity="0.4"/>
            <g id="Grupo_3920" data-name="Grupo 3920" transform="translate(54.665 195.374)" opacity="0.4">
              <path id="Trazado_7360" data-name="Trazado 7360" d="M372.4,281.087l-10.9,11.148-45.739,39.693-7.15-1.651,6.632,15.1a34.094,34.094,0,0,0,2.1,4.013c5.423-1.465,12.19-3.632,15.123-5.95,5.268-4.166,29.28-37.855,29.28-37.855s7.105-4.41,8.055-6.793,2.726-12.809,3.461-14.523S372.4,281.087,372.4,281.087Z" transform="translate(-274.118 -247.991)" fill="gray"/>
              <path id="Trazado_7361" data-name="Trazado 7361" d="M338.643,282.306c2.451-.242,4.277-3.677,4.277-3.677l3.809-1.716.49-3.8-6.37-2.691-35.737-10.254L282.9,255.333l-1.133,3.749,6.492,14.782,37.274,7.357S336.194,282.549,338.643,282.306Z" transform="translate(-281.769 -255.333)" fill="gray"/>
            </g>
            <path id="Trazado_7362" data-name="Trazado 7362" d="M426.993,257.279l2.489,23.114L442.643,301.7l20.074,20.4-83.043,36.313-4.9-40.019-4.737-21.318-13.184-22.58,68.934-30a3.749,3.749,0,0,1,.522,1.493C426.337,246.68,426.993,257.279,426.993,257.279Z" transform="translate(-205.698 -63.049)" fill="gray" opacity="0.4"/>
            <g id="Grupo_3921" data-name="Grupo 3921" transform="translate(151.155 180.913)">
              <rect id="Rectángulo_2398" data-name="Rectángulo 2398" width="68.97" height="47.096" rx="1.822" transform="translate(7.987 41.076) rotate(-23.364)" fill="#e5e5e5"/>
              <rect id="Rectángulo_2399" data-name="Rectángulo 2399" width="54.714" height="29.284" rx="1.477" transform="translate(15.235 39.881) rotate(-23.364)" fill="#666"/>
              <rect id="Rectángulo_2400" data-name="Rectángulo 2400" width="12.559" height="11.069" rx="1.532" transform="matrix(0.918, -0.397, 0.397, 0.918, 47, 60.262)" fill="#cbcbcb"/>
              <path id="Trazado_7363" data-name="Trazado 7363" d="M423.855,244.224,390.877,258.47,357.9,272.716a1.731,1.731,0,0,0-.576,2.774l8.016,8.541a1.266,1.266,0,0,0,1.423.3L396.5,271.481l29.734-12.846a1.263,1.263,0,0,0,.761-1.238l-.724-11.692A1.731,1.731,0,0,0,423.855,244.224Z" transform="translate(-356.854 -244.08)" fill="#fff"/>
              <path id="Trazado_7364" data-name="Trazado 7364" d="M426.881,257.119l-.721-11.637a1.733,1.733,0,0,0-1.869-.267l-32.978,14.247-32.978,14.247a1.734,1.734,0,0,0-1.087,1.543l7.979,8.5a1.266,1.266,0,0,0,1.423.3L396.386,271.2l29.734-12.846A1.263,1.263,0,0,0,426.881,257.119Z" transform="translate(-356.741 -243.802)" fill="gray"/>
              <path id="Trazado_7365" data-name="Trazado 7365" d="M423.135,257.217l-.222-9.6a1.6,1.6,0,0,0-1.664-.153L391.2,260.448,361.147,273.43a1.605,1.605,0,0,0-1.028,1.316l6.835,6.74a1.151,1.151,0,0,0,1.263.193l27.1-11.7,27.095-11.706A1.15,1.15,0,0,0,423.135,257.217Z" transform="translate(-355.923 -243.16)" fill="#a5b4c2"/>
            </g>
            <path id="Trazado_7366" data-name="Trazado 7366" d="M391.021,319.128l-2.677-12.852s2.521-8.159,2.33-9.714-2.951-11.3-2.951-11.3-1.857-.2-2.254.793,0,5.761,0,5.761a12.978,12.978,0,0,1-1.784-2.39c-.3-.676-.941-7.373-1.235-10.587a1.876,1.876,0,0,0-1.87-1.705h0a1.877,1.877,0,0,0-1.863,1.639l-.484,3.773-3.172.635-1.487,3.47-3.336,7.137,2.1,8.055,4.706,6.22.991,11.067Z" transform="translate(-201.882 -53.744)" fill="#eac9b8"/>
            <path id="Trazado_7367" data-name="Trazado 7367" d="M427.669,302.408l-8.848-9.7s-8.091-2.737-9.239-3.8-7.43-9.011-7.43-9.011.927-1.622,1.962-1.362,4.67,3.375,4.67,3.375a13.015,13.015,0,0,0-.893-2.847c-.371-.639-5.423-5.081-7.857-7.2a1.874,1.874,0,0,1-.287-2.514h0a1.876,1.876,0,0,1,2.42-.55l3.341,1.818,2.372-2.2,3.683.828,7.74,1.477,5.3,6.42,2.284,7.457,8.389,7.286Z" transform="translate(-193.571 -56.23)" fill="#eac9b8"/>
            <rect id="Rectángulo_2401" data-name="Rectángulo 2401" width="57.66" height="41.326" transform="translate(84.573 215.442) rotate(-19.604)" fill="#fff"/>
            <rect id="Rectángulo_2402" data-name="Rectángulo 2402" width="56.19" height="38.263" transform="translate(84.574 215.442) rotate(-19.604)" fill="#c4ccd7"/>
            <rect id="Rectángulo_2403" data-name="Rectángulo 2403" width="57.66" height="41.326" transform="translate(81.725 212.555) rotate(-19.604)" fill="#fff"/>
            <path id="Trazado_7368" data-name="Trazado 7368" d="M311.117,259.1l6.79,2.857s7.759-1.632,10.323-.653,10.232,5.865,11.04,6.443a9.016,9.016,0,0,1,2.055,3.844c0,.572-1.642,3.021-3.42,3.184s-9.952.409-9.952.409a30.8,30.8,0,0,1,2.425,2.286,2.586,2.586,0,0,1,.139,2.123c-.278.244-6.582-2.449-8.384-3.021s-4.5-2.939-4.989-3.43S315,270.773,315,270.773l-7.482-3.028Z" transform="translate(-219.764 -58.886)" fill="#fad1b1"/>
            <path id="Trazado_7369" data-name="Trazado 7369" d="M345.221,308.7l4.727-5.652s7.646-2.1,9.476-4.148,1.247-5.282,1.7-6.167-.213-6.6.177-7.018c1.411-1.5,3.4-2.969,4.565-4.252,2.057-2.267.586-3.289-.454-2.868-1.654.668-12.594,8.095-12.594,8.095a30.6,30.6,0,0,0,1.108-3.143c.084-.594-.491-1.86-.849-1.951s-4.729,5.193-6.068,6.527-2.656,4.675-2.863,5.333-.825,3.089-.825,3.089l-5.264,6.12Z" transform="translate(-211.057 -53.355)" fill="#fad1b1"/>
            <g id="Grupo_3922" data-name="Grupo 3922" transform="translate(126.457 114.512)">
              <path id="Rectángulo_2404" data-name="Rectángulo 2404" d="M3.811,0h47.5a3.812,3.812,0,0,1,3.812,3.812V33.157a3.811,3.811,0,0,1-3.811,3.811H3.811A3.811,3.811,0,0,1,0,33.157V3.811A3.811,3.811,0,0,1,3.811,0Z" transform="translate(0 17.411) rotate(-18.413)" fill="#647889"/>
              <path id="Trazado_7370" data-name="Trazado 7370" d="M397.349,230.212l-43,14.316a6.157,6.157,0,0,1-7.779-3.893l-8.582-25.782a6.157,6.157,0,0,1,3.893-7.779l43-14.316a6.157,6.157,0,0,1,7.779,3.893l8.583,25.782A6.157,6.157,0,0,1,397.349,230.212Zm-52.766-21.4a3.65,3.65,0,0,0-2.307,4.611l8.582,25.78a3.649,3.649,0,0,0,4.611,2.307l41.09-13.678a3.649,3.649,0,0,0,2.307-4.61l-8.583-25.782a3.649,3.649,0,0,0-4.61-2.307Z" transform="translate(-337.625 -192.401)" fill="#f8fbfc"/>
              <path id="Trazado_7371" data-name="Trazado 7371" d="M344.938,219.138a1.527,1.527,0,1,1-1.93-.966A1.527,1.527,0,0,1,344.938,219.138Z" transform="translate(-336.401 -185.088)" fill="#d4d2d1"/>
            </g>
            <path id="Trazado_7372" data-name="Trazado 7372" d="M313.5,189.309l40.561,58.269,18.292-4.617L367.2,230.709l-10.563-2.977-12.417-22.349,63.664-23.223.98-10.1-8.38-20.944Z" transform="translate(-218.058 -89.672)" fill="gray" opacity="0.4"/>
            <path id="Trazado_7373" data-name="Trazado 7373" d="M359.73,218.388l-8.4-3.858a.991.991,0,0,0-1.2.3l-.085.112a.99.99,0,0,0,.392,1.5l8.487,3.746a.991.991,0,0,0,.813-1.807Z" transform="translate(-207.698 -71.618)" fill="#fdf5ea"/>
            <path id="Trazado_7374" data-name="Trazado 7374" d="M348.327,175.271a21.606,21.606,0,0,1-4.788,1.337c-2.317.3-5.257-.981-7.217-.668s-6.86,3.742-6.86,3.742l-1.879,4.574-1.144,7.514,8.412,3.43s2.164.969,5.676-.909,9.844-7.34,9.844-7.34l4.243-2.2Z" transform="translate(-214.369 -82.784)" fill="#eac9b8"/>
            <path id="Trazado_7375" data-name="Trazado 7375" d="M351.478,209.387l5.732,2s3.007,3.217,3.561,4.1,0,3.549,0,3.549,2,2,1.887,3.881-3.11,4.437-6.879,4.548-7.763.555-8.65,0-5.1-9.039-5.1-9.039l-5.99-8.263,11.646-5.657Z" transform="translate(-211.633 -74.45)" fill="#eac9b8"/>
            <path id="Trazado_7376" data-name="Trazado 7376" d="M253.651,317.912s-1.869-19.622,2.587-25.747,28.538-48.457,30.575-50.144,44.723,21.841,44.723,21.841-4.792,11.234-5.291,11.454S294.1,264.029,294.1,264.029l-5.516,17.685,8.191-3.156,7.347,16.729s-8.709,5.478-23.5,12.769A127.336,127.336,0,0,1,253.651,317.912Z" transform="translate(-235.231 -63.779)" fill="#80c1d8"/>
            <path id="Trazado_7377" data-name="Trazado 7377" d="M266.376,335.252c-.2.509,21.24,16.277,29.519,13.436s40.495-10.836,44.882-13.953,28.548-31.8,28.548-31.8l-7.672-9.334-25.464,23.051-17.57,5.444-8.3-18.909S274.682,313.94,266.376,335.252Z" transform="translate(-231.493 -38.028)" fill="#80c1d8"/>
            <path id="Trazado_7378" data-name="Trazado 7378" d="M373.427,312.952l19-2.524L399.6,336.39l48.586-21.336-16.853-16.68L442.883,284.3l37.342,30.659s10.944,32.292,10.657,35.858-13.249,30.693-32.911,39.856-46.3-2.69-49.84-3.517-24.543-27.491-24.932-28.379S373.427,312.952,373.427,312.952Z" transform="translate(-200.973 -51.7)" fill="#f39475"/>
            <g id="Grupo_3923" data-name="Grupo 3923" transform="translate(88.423 15.409)">
              <path id="Trazado_7379" data-name="Trazado 7379" d="M411.552,179.824c-2.413-12.882-3.517-41.776-5.926-45.878-3.151-5.365-10.423-12.888-21.917-17.368,0,0-49.1-4.241-60.349,2.685s-15.347,67.735-15.322,70.5,37.822,50.873,37.822,50.873l11.994-9.4-24.259-39.856,53.91-23.675.966,6.721-37.64,17.368,7.465,13.35,48.2-16.693A7.625,7.625,0,0,0,411.552,179.824Z" transform="translate(-308.038 -115.293)" fill="#e74a5f"/>
              <path id="Trazado_7380" data-name="Trazado 7380" d="M351.558,219.424l-4.544.966L308.27,173.854l37.523,50.089Z" transform="translate(-307.972 -98.597)" fill="#c9364f"/>
              <path id="Trazado_7381" data-name="Trazado 7381" d="M401.05,167.41a14.319,14.319,0,0,1-5.843,4.59c-3.553,1.347-45.212,14.087-45.212,14.087l-4.932-.59,2.678,4.788,48.2-16.693A7.623,7.623,0,0,0,401.05,167.41Z" transform="translate(-297.483 -100.435)" fill="#c9364f"/>
              <path id="Trazado_7382" data-name="Trazado 7382" d="M327.925,187.388l7.727-57.077s22.215-2.286,28.422,0,15.483,6.434,15.483,6.434l2.277,26.969Z" transform="translate(-302.368 -111.301)" fill="#c9364f"/>
              <path id="Trazado_7383" data-name="Trazado 7383" d="M322.753,121.569s11.742,14.38,12,28.507,4.828,8.245,4.828,8.245l-2.451-25.809S331.084,124.183,322.753,121.569Z" transform="translate(-303.843 -113.504)" fill="#c9364f"/>
              <path id="Trazado_7384" data-name="Trazado 7384" d="M370.227,144.72s-2.591-15.164,4.759-22.515a23.366,23.366,0,0,0-12.086,14.7C360.122,147.523,370.227,144.72,370.227,144.72Z" transform="translate(-292.535 -113.322)" fill="#c9364f"/>
            </g>
            <g id="Grupo_3924" data-name="Grupo 3924" transform="translate(119.449 0)">
              <path id="Trazado_7385" data-name="Trazado 7385" d="M368.1,133.229c.387-.141-.3,10.345-.3,10.345l-3.439,5.356s-8,5.713-9.5,6.409-10.224.828-10.224.828-2.611,1.25-3.845.68-2.535-4.918-2.535-4.918-4.837-2.613-4.667-12.618,12.893-14.38,12.893-14.38Z" transform="translate(-331.78 -97.136)" fill="#eac9b8"/>
              <path id="Trazado_7386" data-name="Trazado 7386" d="M337.374,116.994s-2.967-1.214-4.658,1.051,1.171,6.479,1.171,6.479Z" transform="translate(-332.181 -99.492)" fill="#eac9b8"/>
              <path id="Trazado_7387" data-name="Trazado 7387" d="M368.184,131.769s2.2.618,2.223,2.474-4.25,6.386-7.218,6.048S368.184,131.769,368.184,131.769Z" transform="translate(-323.53 -95.187)" fill="#eac9b8"/>
              <path id="Trazado_7388" data-name="Trazado 7388" d="M332.547,142.337s-1.671-18.1,4.238-26.706,12.379-10.1,12.379-10.1a16.714,16.714,0,0,1,13.86-1.283,29,29,0,0,1,16.939,17.472c2.484,7.569-1.1,18.535-5.279,23.871a56.5,56.5,0,0,1-9.959,9.5s2.39-7.018-.4-7.456c0,0-11.211,8.5-18.7,8.029s-8.919-1.992-8.919-1.992,9.141-2.185,12.955-5.338c0,0-10.675,3.186-15.542,3.07l3.6-4.536-2.484,1.2A8.95,8.95,0,0,1,332.547,142.337Z" transform="translate(-332.139 -103.302)" fill="#393f4b"/>
            </g>
            <path id="Trazado_7389" data-name="Trazado 7389" d="M298.494,317.3s1,4.04-.8,6.879-5.228,3.412-7.514,6.6-6.763,9.444-13.06,9.582-11.033-6.478-14.708-7.867-13.068,1.226-16.008-4.655,4-15.763-.571-20.826-3.908-11.139-1.307-14.047c4.227-4.729,9.8-5.187,16.253-1.511s10.127.939,13.067-.041,7.923-1.344,9.8-.509,3.151,4.134,3.151,4.134Z" transform="translate(-238.304 -50.359)" fill="#11114e"/>
            <path id="Trazado_7390" data-name="Trazado 7390" d="M290.051,270.433l-8.191,3.156-5.023,12.74s7.964-1.1,9.8,0c.856.514,2.431,2.692,3.869,4.872,4.464-2.512,6.891-4.039,6.891-4.039Z" transform="translate(-228.511 -55.654)" fill="#63adc1"/>
            <path id="Trazado_7391" data-name="Trazado 7391" d="M302.772,301.057s-2.194.663-5.617,1.983c1.486,3.42,3.668,9.2,3.174,12.658-.735,5.146-7.493,9.066-7.493,9.066l18.239-4.8Z" transform="translate(-223.949 -46.924)" fill="#63adc1"/>
            <path id="Trazado_7392" data-name="Trazado 7392" d="M412.145,346.732s-3.253-8.834.066-14.026c3.867-6.05,14.446-10.006,21.155-7.423,9.834,3.785,9.145,6.968,9.145,6.968Z" transform="translate(-190.341 -40.246)" fill="#fad1b1"/>
            <path id="Trazado_7393" data-name="Trazado 7393" d="M447.7,332.544s-7.107-7.668-17.674-5.98-12.918,3.909-12.918,3.909l2.747-.076-4.908,3.753s-5.81,9.5-5.656,16.253a20.768,20.768,0,0,0,3.353,11.072s1.245,6.611,4.369,9.442,10.644,5.842,16.321,5.256a28.849,28.849,0,0,0,10.621-3.592,13.132,13.132,0,0,0,8.42-4.626,13.881,13.881,0,0,0,3.336-8.942s3.435-4.251,3.619-6.762-1.736-8.853-1.736-8.853S455.179,332.925,447.7,332.544Z" transform="translate(-190.749 -39.721)" fill="#6f251e"/>
            <path id="Trazado_7394" data-name="Trazado 7394" d="M393.792,329.568l2.957,12.139,8.086,9.656s2.205-13.531,12.74-22.253,28.912-6.515,31.607-6.392,12.986,12.157,12.986,12.157l-5.635-15.011-14.155-11.633Z" transform="translate(-195.167 -44.878)" fill="#e28166"/>
            <path id="Trazado_7395" data-name="Trazado 7395" d="M479.7,342.257s-19.9,25.6-38.264,30.668c-16.092,4.441-35.634-.658-40.223-1.988,6.035,2,30.481,11.774,48.841,3.217C464.046,367.631,474.646,352.008,479.7,342.257Z" transform="translate(-193.053 -35.178)" fill="#e28166"/>
            <path id="Trazado_7396" data-name="Trazado 7396" d="M356.411,216.8l-9.345-4.29a1.1,1.1,0,0,0-1.339.338l-.094.125a1.1,1.1,0,0,0,.436,1.671l9.438,4.165a1.1,1.1,0,0,0,.9-2.009Z" transform="translate(-208.96 -72.197)" fill="#fdf5ea"/>
            <rect id="Rectángulo_2405" data-name="Rectángulo 2405" width="57.66" height="41.326" transform="translate(212.199 132.751)" fill="#fff"/>
            <rect id="Rectángulo_2406" data-name="Rectángulo 2406" width="56.19" height="38.263" transform="translate(212.199 132.751)" fill="#c4ccd7"/>
            <rect id="Rectángulo_2407" data-name="Rectángulo 2407" width="57.66" height="41.326" transform="translate(210.484 129.076)" fill="#fff"/>
            <rect id="Rectángulo_2408" data-name="Rectángulo 2408" width="57.66" height="41.326" transform="translate(216.721 95.333) rotate(-8.769)" fill="#fff"/>
            <rect id="Rectángulo_2409" data-name="Rectángulo 2409" width="56.19" height="38.263" transform="translate(216.721 95.333) rotate(-8.769)" fill="#c4ccd7"/>
            <rect id="Rectángulo_2410" data-name="Rectángulo 2410" width="57.66" height="41.326" transform="translate(214.466 91.962) rotate(-8.769)" fill="#fff"/>
            <g id="Grupo_3926" data-name="Grupo 3926" transform="translate(59.746 136.941)">
              <path id="Trazado_7397" data-name="Trazado 7397" d="M286.678,229.6a1.728,1.728,0,0,0,2.379.556l5.972-3.709-1.822-2.935-5.972,3.709A1.727,1.727,0,0,0,286.678,229.6Z" transform="translate(-285.525 -205.972)" fill="#f16a44"/>
              <circle id="Elipse_644" data-name="Elipse 644" cx="10.628" cy="10.628" r="10.628" transform="translate(0 15.03) rotate(-45)" fill="#f16a44"/>
              <path id="Trazado_7398" data-name="Trazado 7398" d="M289.793,222.069a9.691,9.691,0,0,1,.856-2.894,9.807,9.807,0,0,1,1.73-2.512,10.063,10.063,0,0,1,5.34-2.891c.254-.04.51-.069.766-.1s.514-.03.77-.048c.129,0,.257-.014.386-.012l.386.014c.258,0,.514.037.77.064a9.818,9.818,0,0,1,5.467,2.574,9.843,9.843,0,0,1,1.839,2.4,10.515,10.515,0,0,0-4.535-3.722,10.022,10.022,0,0,0-10.885,2.028A10.607,10.607,0,0,0,289.793,222.069Z" transform="translate(-284.563 -208.796)" fill="#f8fbfc"/>
              <circle id="Elipse_645" data-name="Elipse 645" cx="8.588" cy="8.588" r="8.588" transform="translate(6.442 6.441)" fill="#93603d"/>
              <path id="Trazado_7399" data-name="Trazado 7399" d="M291.01,225.1a8.588,8.588,0,0,0,16.743-1.279A8.588,8.588,0,0,0,291.01,225.1Z" transform="translate(-284.216 -207.637)" fill="#a4704c"/>
              <g id="Grupo_3925" data-name="Grupo 3925" transform="translate(7.945 9.259)" opacity="0.5">
                <path id="Trazado_7400" data-name="Trazado 7400" d="M303.68,218.623a.136.136,0,0,0-.189-.042.138.138,0,0,0-.042.189,6.813,6.813,0,0,1-5.756,10.457,6.887,6.887,0,0,1-1.081-.085.136.136,0,0,0-.157.113.138.138,0,0,0,.113.157,7.3,7.3,0,0,0,1.124.089,7.087,7.087,0,0,0,5.987-10.877Z" transform="translate(-290.608 -216.644)" fill="#f8fbfc"/>
                <path id="Trazado_7401" data-name="Trazado 7401" d="M295,217.316a.136.136,0,1,0-.159-.221,7.086,7.086,0,0,0-1.115,10.486.131.131,0,0,0,.1.045.14.14,0,0,0,.091-.035.137.137,0,0,0,.01-.193A6.813,6.813,0,0,1,295,217.316Z" transform="translate(-291.905 -217.069)" fill="#f8fbfc"/>
                <path id="Trazado_7402" data-name="Trazado 7402" d="M298.454,218.2a4.429,4.429,0,0,1,.654.049.137.137,0,0,0,.04-.271,4.8,4.8,0,0,0-.694-.051,4.677,4.677,0,0,0-4.671,4.673,4.741,4.741,0,0,0,.048.676.137.137,0,0,0,.135.117h.021a.136.136,0,0,0,.116-.154,4.4,4.4,0,0,1,4.353-5.036Z" transform="translate(-291.37 -216.825)" fill="#f8fbfc"/>
                <path id="Trazado_7403" data-name="Trazado 7403" d="M301.608,224.095a.137.137,0,0,0-.2-.186,4.4,4.4,0,0,1-6.459-.026.136.136,0,0,0-.2.185,4.671,4.671,0,0,0,6.86.027Z" transform="translate(-291.105 -215.139)" fill="#f8fbfc"/>
                <path id="Trazado_7404" data-name="Trazado 7404" d="M298.984,218.563a4.382,4.382,0,0,1,2.407,3.923c0,.113,0,.226-.013.337a.137.137,0,0,0,.126.146h.012a.135.135,0,0,0,.135-.126c.009-.118.014-.236.014-.357a4.653,4.653,0,0,0-2.556-4.166.137.137,0,0,0-.125.243Z" transform="translate(-289.908 -216.717)" fill="#f8fbfc"/>
                <path id="Trazado_7405" data-name="Trazado 7405" d="M297.448,224.815a3.6,3.6,0,0,0,3.106-1.754.137.137,0,1,0-.234-.141,3.33,3.33,0,0,1-2.872,1.623.136.136,0,0,0,0,.272Z" transform="translate(-290.364 -215.42)" fill="#f8fbfc"/>
                <path id="Trazado_7406" data-name="Trazado 7406" d="M300.488,219.994a.137.137,0,0,0,.193-.194,3.626,3.626,0,0,0-5.7.738.137.137,0,0,0,.049.188.146.146,0,0,0,.068.018.136.136,0,0,0,.118-.068,3.368,3.368,0,0,1,2.9-1.663A3.33,3.33,0,0,1,300.488,219.994Z" transform="translate(-291.032 -216.593)" fill="#f8fbfc"/>
              </g>
            </g>
            <g id="Grupo_3928" data-name="Grupo 3928" transform="translate(222.626 54.217)">
              <path id="Trazado_7407" data-name="Trazado 7407" d="M433.283,146.278a1.726,1.726,0,0,0-2.442,0l-4.971,4.971,2.442,2.443,4.971-4.971A1.727,1.727,0,0,0,433.283,146.278Z" transform="translate(-408.648 -145.412)" fill="#f16a44"/>
              <circle id="Elipse_646" data-name="Elipse 646" cx="10.627" cy="10.627" r="10.627" transform="translate(0 20.682) rotate(-76.669)" fill="#f16a44"/>
              <path id="Trazado_7408" data-name="Trazado 7408" d="M414.8,155.956a9.689,9.689,0,0,1,.856-2.9,9.848,9.848,0,0,1,1.73-2.512,10.063,10.063,0,0,1,5.34-2.891c.254-.04.51-.069.766-.1s.514-.03.77-.048c.129,0,.257-.014.386-.012l.387.014c.257,0,.513.037.768.066a9.8,9.8,0,0,1,5.467,2.573,9.814,9.814,0,0,1,1.839,2.4,10.5,10.5,0,0,0-4.535-3.72,10.018,10.018,0,0,0-10.885,2.027A10.6,10.6,0,0,0,414.8,155.956Z" transform="translate(-411.805 -144.921)" fill="#f8fbfc"/>
              <circle id="Elipse_647" data-name="Elipse 647" cx="8.588" cy="8.588" r="8.588" transform="translate(4.203 4.203)" fill="#93603d"/>
              <path id="Trazado_7409" data-name="Trazado 7409" d="M416.014,158.99a8.588,8.588,0,0,0,16.743-1.279,8.588,8.588,0,0,0-16.743,1.279Z" transform="translate(-411.458 -143.761)" fill="#a4704c"/>
              <g id="Grupo_3927" data-name="Grupo 3927" transform="translate(5.706 7.021)" opacity="0.5">
                <path id="Trazado_7410" data-name="Trazado 7410" d="M428.684,152.509a.137.137,0,0,0-.189-.042.138.138,0,0,0-.042.189,6.813,6.813,0,0,1-5.756,10.457,6.885,6.885,0,0,1-1.081-.085.137.137,0,0,0-.044.27,7.093,7.093,0,0,0,8.21-7A7.064,7.064,0,0,0,428.684,152.509Z" transform="translate(-415.612 -150.53)" fill="#f8fbfc"/>
                <path id="Trazado_7411" data-name="Trazado 7411" d="M420,151.2a.137.137,0,0,0-.159-.222,7.087,7.087,0,0,0-1.115,10.488.138.138,0,0,0,.1.045.133.133,0,0,0,.091-.036.137.137,0,0,0,.01-.193A6.811,6.811,0,0,1,420,151.2Z" transform="translate(-416.909 -150.955)" fill="#f8fbfc"/>
                <path id="Trazado_7412" data-name="Trazado 7412" d="M423.458,152.082a4.431,4.431,0,0,1,.654.049.137.137,0,0,0,.156-.116.135.135,0,0,0-.116-.154,4.619,4.619,0,0,0-.694-.051,4.677,4.677,0,0,0-4.671,4.671,4.565,4.565,0,0,0,.049.676.137.137,0,0,0,.135.118l.019,0a.136.136,0,0,0,.116-.154,4.4,4.4,0,0,1,4.353-5.036Z" transform="translate(-416.374 -150.712)" fill="#f8fbfc"/>
                <path id="Trazado_7413" data-name="Trazado 7413" d="M426.612,157.981a.137.137,0,0,0-.2-.186,4.4,4.4,0,0,1-6.459-.024.136.136,0,1,0-.2.185,4.672,4.672,0,0,0,6.86.026Z" transform="translate(-416.109 -149.025)" fill="#f8fbfc"/>
                <path id="Trazado_7414" data-name="Trazado 7414" d="M423.988,152.449a4.382,4.382,0,0,1,2.407,3.923c0,.113,0,.226-.012.337a.135.135,0,0,0,.126.146h.01a.138.138,0,0,0,.136-.127c.008-.117.013-.236.013-.357a4.653,4.653,0,0,0-2.556-4.166.137.137,0,1,0-.125.243Z" transform="translate(-414.912 -150.603)" fill="#f8fbfc"/>
                <path id="Trazado_7415" data-name="Trazado 7415" d="M422.452,158.7a3.6,3.6,0,0,0,3.106-1.754.137.137,0,1,0-.234-.141,3.328,3.328,0,0,1-2.872,1.623.136.136,0,0,0,0,.272Z" transform="translate(-415.368 -149.306)" fill="#f8fbfc"/>
                <path id="Trazado_7416" data-name="Trazado 7416" d="M425.492,153.88a.137.137,0,0,0,.193-.194,3.626,3.626,0,0,0-5.7.738.137.137,0,0,0,.049.188.132.132,0,0,0,.068.018.136.136,0,0,0,.118-.067,3.367,3.367,0,0,1,2.9-1.664A3.33,3.33,0,0,1,425.492,153.88Z" transform="translate(-416.036 -150.479)" fill="#f8fbfc"/>
              </g>
            </g>
            <g id="Grupo_3930" data-name="Grupo 3930" transform="translate(267.695 202.889)">
              <path id="Trazado_7417" data-name="Trazado 7417" d="M465.671,284.381A1.726,1.726,0,0,0,466.2,282l-3.767-5.935-2.917,1.852,3.768,5.935A1.727,1.727,0,0,0,465.671,284.381Z" transform="translate(-444.124 -256.938)" fill="#f16a44"/>
              <circle id="Elipse_648" data-name="Elipse 648" cx="10.627" cy="10.627" r="10.627" transform="translate(0 20.682) rotate(-76.669)" fill="#f16a44"/>
              <path id="Trazado_7418" data-name="Trazado 7418" d="M449.868,271.645a9.69,9.69,0,0,1,.856-2.9,9.851,9.851,0,0,1,1.73-2.512,10.061,10.061,0,0,1,5.34-2.89c.254-.04.51-.069.766-.1a7.7,7.7,0,0,1,.77-.048c.128,0,.257-.014.386-.013l.387.015a7.693,7.693,0,0,1,.768.064,9.785,9.785,0,0,1,5.467,2.574,9.789,9.789,0,0,1,1.839,2.4,10.515,10.515,0,0,0-4.535-3.722,10.018,10.018,0,0,0-10.885,2.027A10.612,10.612,0,0,0,449.868,271.645Z" transform="translate(-446.876 -260.61)" fill="#f8fbfc"/>
              <circle id="Elipse_649" data-name="Elipse 649" cx="8.588" cy="8.588" r="8.588" transform="translate(4.203 4.203)" fill="#93603d"/>
              <path id="Trazado_7419" data-name="Trazado 7419" d="M451.085,274.68a8.588,8.588,0,0,0,16.744-1.279,8.588,8.588,0,0,0-16.744,1.279Z" transform="translate(-446.529 -259.45)" fill="#a4704c"/>
              <g id="Grupo_3929" data-name="Grupo 3929" transform="translate(5.706 7.021)" opacity="0.5">
                <path id="Trazado_7420" data-name="Trazado 7420" d="M463.755,268.2a.137.137,0,1,0-.231.146,6.814,6.814,0,0,1-5.756,10.458,6.889,6.889,0,0,1-1.081-.086.138.138,0,0,0-.157.114.136.136,0,0,0,.113.156,7.093,7.093,0,0,0,8.21-7A7.072,7.072,0,0,0,463.755,268.2Z" transform="translate(-450.683 -266.22)" fill="#f8fbfc"/>
                <path id="Trazado_7421" data-name="Trazado 7421" d="M455.076,266.892a.136.136,0,1,0-.159-.221,7.086,7.086,0,0,0-1.115,10.486.136.136,0,0,0,.2-.182,6.813,6.813,0,0,1,1.072-10.083Z" transform="translate(-451.98 -266.645)" fill="#f8fbfc"/>
                <path id="Trazado_7422" data-name="Trazado 7422" d="M458.529,267.773a4.427,4.427,0,0,1,.654.048.136.136,0,1,0,.04-.27,4.619,4.619,0,0,0-.694-.051,4.677,4.677,0,0,0-4.671,4.673,4.562,4.562,0,0,0,.049.676.136.136,0,0,0,.135.117h.019a.138.138,0,0,0,.116-.156,4.4,4.4,0,0,1,4.353-5.035Z" transform="translate(-451.445 -266.401)" fill="#f8fbfc"/>
                <path id="Trazado_7423" data-name="Trazado 7423" d="M461.683,273.671a.137.137,0,1,0-.2-.186,4.4,4.4,0,0,1-6.459-.026.136.136,0,0,0-.2.185,4.674,4.674,0,0,0,6.86.027Z" transform="translate(-451.18 -264.714)" fill="#f8fbfc"/>
                <path id="Trazado_7424" data-name="Trazado 7424" d="M459.06,268.139a4.381,4.381,0,0,1,2.407,3.923c0,.113,0,.225-.012.337a.137.137,0,0,0,.126.146h.01a.136.136,0,0,0,.135-.126c.009-.118.014-.238.014-.357a4.655,4.655,0,0,0-2.556-4.168.137.137,0,0,0-.125.244Z" transform="translate(-449.983 -266.292)" fill="#f8fbfc"/>
                <path id="Trazado_7425" data-name="Trazado 7425" d="M457.523,274.391a3.6,3.6,0,0,0,3.106-1.755.135.135,0,0,0-.046-.188.138.138,0,0,0-.188.046,3.328,3.328,0,0,1-2.872,1.623.137.137,0,0,0,0,.274Z" transform="translate(-450.439 -264.995)" fill="#f8fbfc"/>
                <path id="Trazado_7426" data-name="Trazado 7426" d="M460.563,269.568a.136.136,0,0,0,.193-.193,3.6,3.6,0,0,0-2.564-1.062,3.638,3.638,0,0,0-3.132,1.8.136.136,0,1,0,.235.137,3.353,3.353,0,0,1,5.268-.682Z" transform="translate(-451.107 -266.169)" fill="#f8fbfc"/>
              </g>
            </g>
            <path id="Trazado_7427" data-name="Trazado 7427" d="M295.112,303.5c-.242-.573-1.667-.8-3.053-.891-5.283-9.794-18.656-10.137-18.656-10.137s-1.069,4.2,4.632,11.151,5.663,20.73,5.663,20.73a25.213,25.213,0,0,0,6.034-4.942c2.533-2.789,5.03-6.887,3.968-12.292C294.541,305.731,295.369,304.116,295.112,303.5Z" transform="translate(-229.512 -49.37)" fill="#fad1b1"/>
            <path id="Trazado_7428" data-name="Trazado 7428" d="M395.644,309.605l-1.336-4.814a2.543,2.543,0,0,0-2.773-1.843l-16.687,2.129a2.544,2.544,0,0,0-2.151,3.116l1.245,5.193a2.542,2.542,0,0,0,2.85,1.923L393.57,312.8A2.543,2.543,0,0,0,395.644,309.605Z" transform="translate(-201.202 -46.39)" fill="#f9e1df"/>
            <path id="Trazado_7429" data-name="Trazado 7429" d="M414.325,296.866l3.9,3.121a2.543,2.543,0,0,0,3.327-.128l12.284-11.493a2.544,2.544,0,0,0-.08-3.786l-4.049-3.483a2.542,2.542,0,0,0-3.435.109l-12.138,11.852A2.543,2.543,0,0,0,414.325,296.866Z" transform="translate(-189.586 -52.789)" fill="#f9e1df"/>
          </g>
        </g>
      </g>
      <g id="MF1-AUD-IMA-14" transform="matrix(0.985, 0.174, -0.174, 0.985, 866.609, 149.945)">
        <rect id="Rectángulo_1563" data-name="Rectángulo 1563" width="69.385" height="89.794" transform="translate(0.002 10.1) rotate(-8.37)" fill="#e1e7e8"/>
        <rect id="Rectángulo_1564" data-name="Rectángulo 1564" width="57.597" height="1.971" transform="translate(10.642 41.946) rotate(-8.37)" fill="#bbc3c7"/>
        <rect id="Rectángulo_1565" data-name="Rectángulo 1565" width="57.597" height="1.971" transform="translate(10.121 38.388) rotate(-8.37)" fill="#bbc3c7"/>
        <rect id="Rectángulo_1566" data-name="Rectángulo 1566" width="57.597" height="1.971" transform="translate(15.932 77.892) rotate(-8.37)" fill="#bbc3c7"/>
        <rect id="Rectángulo_1567" data-name="Rectángulo 1567" width="57.597" height="1.971" transform="translate(15.403 74.333) rotate(-8.37)" fill="#bbc3c7"/>
        <line id="Línea_170" data-name="Línea 170" y1="8.442" x2="57.376" transform="translate(14.61 59.716)" fill="none" stroke="#bbc3c7" stroke-miterlimit="10" stroke-width="0.93"/>
        <line id="Línea_171" data-name="Línea 171" y1="8.442" x2="57.384" transform="translate(14.095 56.255)" fill="none" stroke="#bbc3c7" stroke-miterlimit="10" stroke-width="0.93"/>
        <line id="Línea_172" data-name="Línea 172" y1="8.442" x2="57.384" transform="translate(13.514 52.296)" fill="none" stroke="#bbc3c7" stroke-miterlimit="10" stroke-width="0.93"/>
        <line id="Línea_173" data-name="Línea 173" y1="8.442" x2="57.376" transform="translate(13.007 48.836)" fill="none" stroke="#bbc3c7" stroke-miterlimit="10" stroke-width="0.93"/>
        <line id="Línea_174" data-name="Línea 174" y1="8.442" x2="57.376" transform="translate(12.5 45.376)" fill="none" stroke="#bbc3c7" stroke-miterlimit="10" stroke-width="0.93"/>
        <line id="Línea_175" data-name="Línea 175" y1="8.442" x2="57.384" transform="translate(11.911 41.416)" fill="none" stroke="#bbc3c7" stroke-miterlimit="10" stroke-width="0.93"/>
        <rect id="Rectángulo_1568" data-name="Rectángulo 1568" width="57.597" height="24.696" transform="translate(11.376 46.946) rotate(-8.37)" fill="none" stroke="#bbc3c7" stroke-miterlimit="10" stroke-width="0.61"/>
        <line id="Línea_176" data-name="Línea 176" x2="3.567" y2="24.238" transform="translate(60.24 39.969)" fill="none" stroke="#bbc3c7" stroke-miterlimit="10" stroke-width="0.93"/>
        <line id="Línea_177" data-name="Línea 177" x2="3.567" y2="24.238" transform="translate(52.82 41.056)" fill="none" stroke="#bbc3c7" stroke-miterlimit="10" stroke-width="0.93"/>
        <line id="Línea_178" data-name="Línea 178" x2="3.567" y2="24.238" transform="translate(43.421 42.439)" fill="none" stroke="#bbc3c7" stroke-miterlimit="10" stroke-width="0.93"/>
        <line id="Línea_179" data-name="Línea 179" x2="3.567" y2="24.238" transform="translate(36.002 43.535)" fill="none" stroke="#bbc3c7" stroke-miterlimit="10" stroke-width="0.93"/>
        <line id="Línea_180" data-name="Línea 180" x2="3.567" y2="24.238" transform="translate(27.093 44.844)" fill="none" stroke="#bbc3c7" stroke-miterlimit="10" stroke-width="0.93"/>
        <line id="Línea_181" data-name="Línea 181" x2="3.567" y2="24.238" transform="translate(18.684 46.079)" fill="none" stroke="#bbc3c7" stroke-miterlimit="10" stroke-width="0.93"/>
        <path id="Trazado_3540" data-name="Trazado 3540" d="M25.857,34.473h0l5.407-6.585a8.3,8.3,0,0,0-6.544-1.906l1.1,8.246Z" transform="translate(-6.421 -9.622)" fill="#00cc6b"/>
        <path id="Trazado_3541" data-name="Trazado 3541" d="M23.52,32.77Z" transform="translate(-4.28 -5.963)" fill="#eaeff0"/>
        <path id="Trazado_3542" data-name="Trazado 3542" d="M34.525,32.092a8.311,8.311,0,0,0-2.348-3.272L26.77,35.364Z" transform="translate(-6.794 -10.153)" fill="#ff7f0b"/>
        <path id="Trazado_3543" data-name="Trazado 3543" d="M34.635,33.59,26.88,36.862h0l8.336-.18a7.591,7.591,0,0,0-.057-1.243,8.091,8.091,0,0,0-.524-1.849Z" transform="translate(-6.814 -11.021)" fill="#f15300"/>
        <path id="Trazado_3544" data-name="Trazado 3544" d="M19.91,44.566A8.319,8.319,0,0,0,33.391,38.12l-8.336.18Z" transform="translate(-5.545 -11.845)" fill="#0098dd"/>
        <path id="Trazado_3545" data-name="Trazado 3545" d="M23.73,36.117v-.245L22.585,27.65h-.049a8.319,8.319,0,0,0-3.951,14.724Z" transform="translate(-4.735 -9.94)" fill="#00bc9b"/>
        <rect id="Rectángulo_1569" data-name="Rectángulo 1569" width="33.711" height="15.076" transform="translate(29.647 15.976) rotate(-8.37)" fill="#bbc3c7" stroke="#bbc3c7" stroke-miterlimit="10" stroke-width="0.61"/>
        <rect id="Rectángulo_1570" data-name="Rectángulo 1570" width="69.385" height="89.794" transform="matrix(1, -0.011, 0.011, 1, 29.947, 1.389)" fill="#f0f5f6"/>
        <rect id="Rectángulo_1571" data-name="Rectángulo 1571" width="57.597" height="1.971" transform="translate(35.946 12.832) rotate(-0.573)" fill="#bbc3c7"/>
        <rect id="Rectángulo_1572" data-name="Rectángulo 1572" width="57.597" height="1.971" transform="matrix(1, -0.011, 0.011, 1, 35.928, 9.515)" fill="#bbc3c7"/>
        <rect id="Rectángulo_1573" data-name="Rectángulo 1573" width="57.597" height="1.971" transform="matrix(1, -0.011, 0.011, 1, 36.677, 76.564)" fill="#bbc3c7"/>
        <rect id="Rectángulo_1574" data-name="Rectángulo 1574" width="57.597" height="1.971" transform="matrix(1, -0.011, 0.011, 1, 36.636, 72.966)" fill="#bbc3c7"/>
        <rect id="Rectángulo_1575" data-name="Rectángulo 1575" width="57.597" height="1.971" transform="matrix(1, -0.011, 0.011, 1, 36.593, 69.04)" fill="#bbc3c7"/>
        <rect id="Rectángulo_1576" data-name="Rectángulo 1576" width="57.597" height="1.971" transform="matrix(1, -0.011, 0.011, 1, 36.552, 65.433)" fill="#bbc3c7"/>
        <rect id="Rectángulo_1577" data-name="Rectángulo 1577" width="57.597" height="1.971" transform="matrix(1, -0.011, 0.011, 1, 36.517, 61.507)" fill="#bbc3c7"/>
        <rect id="Rectángulo_1578" data-name="Rectángulo 1578" width="57.597" height="1.971" transform="matrix(1, -0.011, 0.011, 1, 36.476, 57.909)" fill="#bbc3c7"/>
        <line id="Línea_182" data-name="Línea 182" y1="0.18" x2="16.033" transform="translate(78.261 77.712)" fill="#bbc3c7" stroke="#bbc3c7" stroke-miterlimit="10" stroke-width="0.61"/>
        <line id="Línea_183" data-name="Línea 183" y1="0.18" x2="16.033" transform="translate(78.31 81.974)" fill="#bbc3c7" stroke="#bbc3c7" stroke-miterlimit="10" stroke-width="0.61"/>
        <rect id="Rectángulo_1579" data-name="Rectángulo 1579" width="5.448" height="11.477" transform="matrix(1, -0.011, 0.011, 1, 45.367, 27.544)" fill="#00bc9b"/>
        <rect id="Rectángulo_1580" data-name="Rectángulo 1580" width="5.448" height="6.119" transform="matrix(1, -0.011, 0.011, 1, 39.98, 32.962)" fill="#0098dd"/>
        <rect id="Rectángulo_1581" data-name="Rectángulo 1581" width="5.448" height="13.007" transform="matrix(1, -0.011, 0.011, 1, 50.797, 25.945)" fill="#00cc6b"/>
        <rect id="Rectángulo_1582" data-name="Rectángulo 1582" width="5.448" height="16.753" transform="matrix(1, -0.011, 0.011, 1, 56.202, 22.146)" fill="#ff7f0b"/>
        <rect id="Rectángulo_1583" data-name="Rectángulo 1583" width="5.448" height="21.432" transform="matrix(1, -0.011, 0.011, 1, 61.589, 17.407)" fill="#f15300"/>
        <rect id="Rectángulo_1584" data-name="Rectángulo 1584" width="20.999" height="21.727" transform="matrix(1, -0.011, 0.011, 1, 71.312, 17.298)" fill="#bbc3c7"/>
        <rect id="Rectángulo_1585" data-name="Rectángulo 1585" width="56.288" height="11.984" transform="matrix(1, -0.011, 0.011, 1, 36.302, 43.015)" fill="#bbc3c7"/>
      </g>
    </g>
    <g id="Grupo_4149" data-name="Grupo 4149" transform="translate(-332 6694)" opacity="0.839">
      <path id="Trazado_1359" data-name="Trazado 1359" d="M9.5,0H137.424a9.484,9.484,0,0,1,9.484,9.484V71a9.484,9.484,0,0,1-9.484,9.484H9.5a9.5,9.5,0,0,1-9.5-9.5V9.412A9.484,9.484,0,0,1,9.5,0Z" transform="matrix(0.101, -0.995, 0.995, 0.101, 1314.43, -6244.105)" fill="#134663"/>
      <rect id="Rectángulo_697" data-name="Rectángulo 697" width="113.94" height="69.649" rx="2.09" transform="matrix(0.101, -0.995, 0.995, 0.101, 1321.814, -6263.514)" fill="#55d6d2"/>
      <path id="Trazado_1360" data-name="Trazado 1360" d="M941.579,154.98a5.461,5.461,0,0,1-6.007,4.915l-11.123-1.129a5.461,5.461,0,0,1-4.915-6.007h0a5.462,5.462,0,0,1,6.008-4.915l11.123,1.129a5.461,5.461,0,0,1,4.915,6.007Z" transform="translate(424.187 -6403.223)" fill="#fff"/>
      <path id="Trazado_1361" data-name="Trazado 1361" d="M949.066,82.178A2.13,2.13,0,0,1,946.754,84L928.9,82.178a2.112,2.112,0,0,1-1.82-2.312h0a2.112,2.112,0,0,1,2.312-1.82l17.84,1.82a2.13,2.13,0,0,1,1.82,2.312Z" transform="translate(430.39 -6460.472)" fill="#fff"/>
      <path id="Trazado_1362" data-name="Trazado 1362" d="M962.721,102.05l-13.562,3.641-.109.874,4.988,3.331-.164.2-.419.51-.473.528c-.328.346-.674.728-1.056,1.092a33.886,33.886,0,0,1-2.6,2.33l-.746.582a3.027,3.027,0,0,1-.382.291l-.4.291c-.528.382-1.074.783-1.656,1.147l-.874.564-.91.528-.928.546-.965.492c-.328.164-.655.346-.983.492l-1,.473c-.674.328-1.365.583-2.057.874-1.384.546-2.8,1.038-4.223,1.456l-.528.146-.528.146-1.074.273h-.419l-.546.109-1.074.237-.528.109h-.51l-1,.164c-.674.127-1.347.182-1.984.273l-.965.109h-.856l-6.881-.819-2.512-.291-.109.874.546.127,1.529.346,1.092.218c.4,0,.837.164,1.311.218l1.493.2c.528,0,1.074.109,1.657.164s1.183.091,1.82.109h8.392l1.147-.146H934.8c1.529-.255,3.095-.583,4.624-.983.765-.218,1.529-.4,2.276-.674l1.129-.346,1.11-.419,1.11-.4,1.074-.455,1.056-.473,1.038-.492c.674-.309,1.329-.692,1.966-1.038l.492-.255.455-.273.91-.564a36.413,36.413,0,0,0,3.259-2.257c.491-.364.947-.765,1.365-1.129l.637-.546.564-.546c.2-.164.364-.346.546-.51s.2-.2.309-.309l5.134,3.441.109-.874Z" transform="translate(420.23 -6440.769)" fill="#f85b30"/>
      <rect id="Rectángulo_698" data-name="Rectángulo 698" width="16.275" height="14.891" transform="translate(1334.527 -6297.506) rotate(-83.13)" fill="#f85b30"/>
      <rect id="Rectángulo_699" data-name="Rectángulo 699" width="19.624" height="14.891" transform="translate(1352.105 -6295.389) rotate(-83.13)" fill="#ffca00"/>
      <rect id="Rectángulo_700" data-name="Rectángulo 700" width="27.525" height="14.891" transform="translate(1369.714 -6293.263) rotate(-83.13)" fill="#134663"/>
      <path id="Trazado_1363" data-name="Trazado 1363" d="M963.894,115.915l-1.056-14.345-13.671,4.424,4.988,3.331-.164.2-.419.51-.473.528c-.328.346-.673.746-1.056,1.11-.765.746-1.638,1.529-2.6,2.312l-.746.583-.382.309-.4.273c-.528.382-1.074.783-1.656,1.147l-.874.564-.91.528-.928.546-.965.492-.983.51-1,.455c-.674.328-1.365.583-2.057.874-1.384.546-2.8,1.038-4.223,1.456l-.528.164-.546.127-1.056.273h-.528l-.528.127-1.074.218-.528.109h-.51l-1.019.164c-.655.127-1.329.182-1.966.273l-.965.109h-8.283l-1.566-.164h-.546l.546.127,1.529.364,1.092.2a12.791,12.791,0,0,1,1.292.218l1.493.2c.528,0,1.092.109,1.675.164a16.126,16.126,0,0,1,1.82.127h8.52l1.129-.146h.583l.564-.109c1.529-.255,3.076-.583,4.606-.983.765-.2,1.547-.4,2.294-.655l1.129-.364,1.11-.419,1.11-.4,1.074-.455c.346-.164.71-.291,1.056-.473l1.019-.492c.692-.309,1.347-.674,1.984-1.019l.473-.273.473-.273.91-.546c1.183-.746,2.276-1.511,3.259-2.276.492-.364.928-.765,1.365-1.129l.637-.546.564-.528.546-.528.309-.291Z" transform="translate(420.222 -6441.162)" fill="#f85b30"/>
    </g>
  </g>
</svg>
